<svg data-v-fde0c5aa="" xmlns="http://www.w3.org/2000/svg" viewBox="0 0 300 300" class="iconLeft"><!----><defs data-v-fde0c5aa=""><!----></defs><rect data-v-fde0c5aa="" fill="#F7ECC7" x="0" y="0" width="300px" height="300px" class="logo-background-square"></rect><defs data-v-fde0c5aa=""><!----></defs><g data-v-fde0c5aa="" id="25d3b0cb-1e52-4240-a376-69c7e58c4c2d" fill="#713B28" transform="matrix(1.9258501076852992,0,0,1.9258501076852992,94.56947459045772,126.36018974449956)"><path d="M4.56 9.55L4.56 9.55Q4.30 9.90 4.17 10.20L4.17 10.20L4.17 10.20Q4.05 10.50 4.05 10.91L4.05 10.91L4.05 12.89L4.98 12.89L4.98 12.89Q6.20 12.89 6.96 12.32L6.96 12.32L7.20 12.57L7.20 12.57Q6.40 13.80 4.62 13.80L4.62 13.80L4.05 13.80L4.05 16.46L4.05 16.46Q4.05 17.44 3.60 18.14L3.60 18.14L3.60 18.14Q3.16 18.83 2.25 19.40L2.25 19.40L1.96 19.07L1.96 19.07Q2.31 18.69 2.31 17.71L2.31 17.71L2.31 13.80L1.04 13.80L1.74 12.89L2.31 12.89L2.31 11.72L2.31 11.72Q2.31 10.71 3.63 9.55L3.63 9.55L1.71 9.53L1.71 9.53Q0.81 9.53 0.08 10.39L0.08 10.39L-0.21 10.09L-0.21 10.09Q0.43 9.23 1.13 8.72L1.13 8.72L1.13 8.72Q1.82 8.22 2.72 8.22L2.72 8.22L6.06 8.22L6.06 8.22Q6.73 8.22 7.42 8.10L7.42 8.10L7.42 8.10Q8.11 7.98 8.47 7.67L8.47 7.67L8.68 7.92L8.68 7.92Q8.23 8.61 7.45 9.08L7.45 9.08L7.45 9.08Q6.66 9.55 5.73 9.55L5.73 9.55L4.56 9.55ZM11.69 10.96L11.69 10.96Q12.50 10.96 13.05 11.38L13.05 11.38L13.05 11.38Q13.59 11.79 13.59 12.57L13.59 12.57L13.59 12.57Q13.59 13.20 12.91 13.98L12.91 13.98L12.91 13.98Q12.24 14.76 11.30 15.42L11.30 15.42L11.30 15.42Q10.37 16.09 9.72 16.38L9.72 16.38L9.72 16.38Q10.30 17.32 11.44 17.32L11.44 17.32L11.44 17.32Q12.07 17.32 12.71 16.96L12.71 16.96L12.71 16.96Q13.34 16.60 13.79 16.02L13.79 16.02L14.07 16.35L14.07 16.35Q13.34 17.26 12.54 17.76L12.54 17.76L12.54 17.76Q11.73 18.26 10.63 18.26L10.63 18.26L10.63 18.26Q9.73 18.26 9.02 17.85L9.02 17.85L9.02 17.85Q8.32 17.44 7.92 16.74L7.92 16.74L7.92 16.74Q7.52 16.03 7.52 15.15L7.52 15.15L7.52 15.15Q7.52 14.08 8.10 13.11L8.10 13.11L8.10 13.11Q8.68 12.14 9.65 11.55L9.65 11.55L9.65 11.55Q10.61 10.96 11.69 10.96L11.69 10.96ZM10.89 11.87L10.89 11.87Q10.36 11.87 9.94 12.26L9.94 12.26L9.94 12.26Q9.52 12.64 9.28 13.24L9.28 13.24L9.28 13.24Q9.04 13.85 9.04 14.49L9.04 14.49L9.04 14.49Q9.04 15.33 9.41 15.93L9.41 15.93L9.41 15.93Q9.93 15.64 10.51 15.11L10.51 15.11L10.51 15.11Q11.09 14.59 11.48 13.99L11.48 13.99L11.48 13.99Q11.87 13.38 11.87 12.89L11.87 12.89L11.87 12.89Q11.87 12.40 11.61 12.14L11.61 12.14L11.61 12.14Q11.35 11.87 10.89 11.87L10.89 11.87ZM17.19 10.51L17.19 10.51Q18.14 10.51 18.14 11.27L18.14 11.27L18.14 11.27Q18.13 11.61 18.00 11.86L18.00 11.86L18.00 11.86Q17.88 12.11 17.73 12.31L17.73 12.31L17.73 12.31Q17.58 12.50 17.53 12.57L17.53 12.57L17.53 12.57Q17.71 12.78 18.19 13.17L18.19 13.17L18.19 13.17Q18.62 13.52 18.89 13.81L18.89 13.81L18.89 13.81Q19.15 14.10 19.33 14.54L19.33 14.54L19.33 14.54Q19.52 14.98 19.52 15.61L19.52 15.61L19.52 15.61Q19.52 16.34 19.16 16.95L19.16 16.95L19.16 16.95Q18.80 17.56 18.19 17.91L18.19 17.91L18.19 17.91Q17.57 18.26 16.83 18.26L16.83 18.26L16.83 18.26Q16.28 18.26 15.69 18.06L15.69 18.06L15.69 18.06Q15.11 17.86 14.81 17.51L14.81 17.51L15.83 16.14L15.83 16.14Q16.13 16.59 16.53 16.94L16.53 16.94L16.53 16.94Q16.94 17.29 17.35 17.29L17.35 17.29L17.35 17.29Q17.86 17.29 18.24 16.94L18.24 16.94L18.24 16.94Q18.62 16.59 18.62 16.06L18.62 16.06L18.62 16.06Q18.62 15.62 18.26 15.20L18.26 15.20L18.26 15.20Q17.89 14.78 17.22 14.18L17.22 14.18L17.22 14.18Q16.76 13.78 16.63 13.64L16.63 13.64L15.68 15.02L15.18 14.69L16.27 13.17L16.27 13.17Q15.99 12.67 15.99 12.01L15.99 12.01L15.99 12.01Q15.99 11.37 16.30 10.94L16.30 10.94L16.30 10.94Q16.60 10.51 17.19 10.51L17.19 10.51ZM17.19 11.09L17.19 11.09Q17.02 11.09 16.97 11.19L16.97 11.19L16.97 11.19Q16.91 11.28 16.91 11.47L16.91 11.47L16.91 11.47Q16.91 11.62 16.97 11.77L16.97 11.77L16.97 11.77Q17.02 11.93 17.09 12.08L17.09 12.08L17.09 12.08Q17.25 11.97 17.36 11.75L17.36 11.75L17.36 11.75Q17.47 11.52 17.47 11.35L17.47 11.35L17.47 11.35Q17.47 11.24 17.39 11.17L17.39 11.17L17.39 11.17Q17.32 11.09 17.19 11.09L17.19 11.09ZM22.85 5.15L22.85 14.62L22.90 14.62L22.90 14.62Q23.21 13.26 23.91 12.11L23.91 12.11L23.91 12.11Q24.61 10.96 25.63 10.96L25.63 10.96L25.63 10.96Q26.11 10.96 26.34 11.26L26.34 11.26L26.34 11.26Q26.57 11.55 26.63 11.95L26.63 11.95L26.63 11.95Q26.68 12.35 26.68 12.92L26.68 12.92L26.68 16.80L26.68 16.80Q26.68 16.97 26.79 17.12L26.79 17.12L26.79 17.12Q26.89 17.26 27.09 17.26L27.09 17.26L27.09 17.26Q27.43 17.26 27.79 16.77L27.79 16.77L28.03 17.04L28.03 17.04Q27.79 17.51 27.34 17.85L27.34 17.85L27.34 17.85Q26.89 18.19 26.36 18.19L26.36 18.19L26.36 18.19Q25.03 18.19 25.03 16.72L25.03 16.72L25.03 13.05L25.03 13.05Q25.03 12.87 24.97 12.72L24.97 12.72L24.97 12.72Q24.91 12.57 24.75 12.57L24.75 12.57L24.75 12.57Q24.16 12.57 23.74 13.55L23.74 13.55L23.74 13.55Q23.31 14.53 23.08 15.82L23.08 15.82L23.08 15.82Q22.85 17.11 22.85 17.91L22.85 17.91L21.17 18.27L21.17 5.74L22.85 5.15ZM32.69 11.00L32.69 11.00Q33.33 11.00 33.89 11.34L33.89 11.34L33.89 11.34Q34.44 11.68 34.75 12.38L34.75 12.38L33.29 13.16L33.29 13.16Q33.15 12.57 32.79 12.24L32.79 12.24L32.79 12.24Q32.42 11.91 32.00 11.91L32.00 11.91L32.00 11.91Q31.44 11.91 31.01 12.26L31.01 12.26L31.01 12.26Q30.58 12.60 30.34 13.15L30.34 13.15L30.34 13.15Q30.11 13.69 30.11 14.29L30.11 14.29L30.11 14.29Q30.11 15.23 30.41 15.92L30.41 15.92L30.41 15.92Q30.70 16.60 31.21 16.96L31.21 16.96L31.21 16.96Q31.72 17.32 32.37 17.32L32.37 17.32L32.37 17.32Q33.66 17.32 34.85 15.85L34.85 15.85L35.17 16.13L35.17 16.13Q34.47 17.15 33.68 17.70L33.68 17.70L33.68 17.70Q32.89 18.26 31.79 18.26L31.79 18.26L31.79 18.26Q30.91 18.26 30.21 17.84L30.21 17.84L30.21 17.84Q29.51 17.43 29.11 16.68L29.11 16.68L29.11 16.68Q28.71 15.93 28.71 14.95L28.71 14.95L28.71 14.95Q28.71 13.87 29.19 12.97L29.19 12.97L29.19 12.97Q29.67 12.07 30.57 11.54L30.57 11.54L30.57 11.54Q31.47 11.00 32.69 11.00L32.69 11.00ZM39.40 10.93L39.66 11.26L39.66 11.26Q38.74 11.91 38.21 12.75L38.21 12.75L38.21 12.75Q37.69 13.58 37.69 14.70L37.69 14.70L37.69 14.70Q37.69 15.32 37.93 15.95L37.93 15.95L37.93 15.95Q38.16 16.58 38.63 16.99L38.63 16.99L38.63 16.99Q39.09 17.40 39.73 17.40L39.73 17.40L39.73 17.40Q40.54 17.40 41.04 16.81L41.04 16.81L41.04 16.81Q41.54 16.23 41.54 15.36L41.54 15.36L41.54 15.36Q41.54 14.70 41.19 14.02L41.19 14.02L41.19 14.02Q40.85 13.34 40.28 12.87L40.28 12.87L40.28 12.87Q39.70 12.40 39.05 12.35L39.05 12.35L39.05 12.35Q39.34 12.03 39.68 11.76L39.68 11.76L39.68 11.76Q40.03 11.49 40.54 11.12L40.54 11.12L40.54 11.12Q41.55 11.45 42.15 12.36L42.15 12.36L42.15 12.36Q42.74 13.27 42.74 14.36L42.74 14.36L42.74 14.36Q42.74 15.33 42.31 16.24L42.31 16.24L42.31 16.24Q41.89 17.15 41.08 17.72L41.08 17.72L41.08 17.72Q40.28 18.28 39.21 18.28L39.21 18.28L39.21 18.28Q38.33 18.28 37.60 17.87L37.60 17.87L37.60 17.87Q36.86 17.46 36.43 16.74L36.43 16.74L36.43 16.74Q35.99 16.02 35.99 15.15L35.99 15.15L35.99 15.15Q35.99 13.65 36.94 12.52L36.94 12.52L36.94 12.52Q37.88 11.38 39.40 10.93L39.40 10.93ZM52.11 10.96L52.11 10.96Q52.64 10.96 52.88 11.30L52.88 11.30L52.88 11.30Q53.13 11.65 53.13 12.32L53.13 12.32L53.13 16.80L53.13 16.80Q53.13 17.00 53.23 17.13L53.23 17.13L53.23 17.13Q53.33 17.26 53.49 17.26L53.49 17.26L53.49 17.26Q53.65 17.26 53.84 17.14L53.84 17.14L53.84 17.14Q54.03 17.01 54.19 16.77L54.19 16.77L54.45 17.04L54.45 17.04Q54.10 17.75 53.59 17.97L53.59 17.97L53.59 17.97Q53.09 18.19 52.81 18.19L52.81 18.19L52.81 18.19Q51.45 18.19 51.45 16.72L51.45 16.72L51.45 12.94L51.45 12.94Q51.45 12.80 51.39 12.68L51.39 12.68L51.39 12.68Q51.32 12.57 51.23 12.57L51.23 12.57L51.23 12.57Q50.93 12.57 50.62 13.24L50.62 13.24L50.62 13.24Q50.30 13.90 50.08 15.12L50.08 15.12L50.08 15.12Q49.87 16.34 49.87 17.91L49.87 17.91L48.17 18.27L48.17 12.94L48.17 12.94Q48.17 12.80 48.12 12.68L48.12 12.68L48.12 12.68Q48.06 12.57 47.96 12.57L47.96 12.57L47.96 12.57Q47.70 12.57 47.37 13.24L47.37 13.24L47.37 13.24Q47.04 13.92 46.81 15.13L46.81 15.13L46.81 15.13Q46.58 16.35 46.58 17.91L46.58 17.91L44.95 18.27L44.95 12.39L44.95 12.39Q44.95 12.17 44.85 12.03L44.85 12.03L44.85 12.03Q44.74 11.90 44.58 11.90L44.58 11.90L44.58 11.90Q44.41 11.90 44.23 12.04L44.23 12.04L44.23 12.04Q44.04 12.18 43.89 12.43L43.89 12.43L43.62 12.15L43.62 12.15Q43.97 11.42 44.49 11.19L44.49 11.19L44.49 11.19Q45.01 10.96 45.28 10.96L45.28 10.96L45.28 10.96Q46.59 10.96 46.59 12.43L46.59 12.43L46.59 14.10L46.65 14.10L46.65 14.10Q47.00 12.63 47.59 11.80L47.59 11.80L47.59 11.80Q48.19 10.96 48.83 10.96L48.83 10.96L48.83 10.96Q49.39 10.96 49.62 11.30L49.62 11.30L49.62 11.30Q49.84 11.63 49.84 12.32L49.84 12.32L49.84 14.10L49.92 14.10L49.92 14.10Q50.26 12.63 50.85 11.80L50.85 11.80L50.85 11.80Q51.45 10.96 52.11 10.96L52.11 10.96ZM64.86 7.67L65.10 7.92L65.10 7.92Q64.61 8.62 63.81 9.09L63.81 9.09L63.81 9.09Q63.01 9.55 62.20 9.55L62.20 9.55L62.20 9.55Q61.94 9.88 61.82 10.19L61.82 10.19L61.82 10.19Q61.70 10.50 61.70 10.91L61.70 10.91L61.70 15.43L61.70 15.43Q61.70 16.44 61.26 17.12L61.26 17.12L61.26 17.12Q60.82 17.81 59.89 18.38L59.89 18.38L59.60 18.05L59.60 18.05Q59.96 17.58 59.96 16.69L59.96 16.69L59.96 11.72L59.96 11.72Q59.96 11.13 60.33 10.58L60.33 10.58L60.33 10.58Q60.70 10.02 61.25 9.55L61.25 9.55L59.39 9.53L59.39 9.53Q58.91 9.53 58.52 9.74L58.52 9.74L58.52 9.74Q58.13 9.95 57.78 10.39L57.78 10.39L57.47 10.09L57.47 10.09Q58.13 9.23 58.82 8.72L58.82 8.72L58.82 8.72Q59.51 8.22 60.40 8.22L60.40 8.22L62.47 8.22L62.47 8.22Q63.14 8.22 63.83 8.10L63.83 8.10L63.83 8.10Q64.51 7.98 64.86 7.67L64.86 7.67ZM67.91 10.96L67.91 10.96Q68.73 10.96 69.27 11.38L69.27 11.38L69.27 11.38Q69.82 11.79 69.82 12.57L69.82 12.57L69.82 12.57Q69.82 13.20 69.14 13.98L69.14 13.98L69.14 13.98Q68.46 14.76 67.53 15.42L67.53 15.42L67.53 15.42Q66.60 16.09 65.94 16.38L65.94 16.38L65.94 16.38Q66.53 17.32 67.66 17.32L67.66 17.32L67.66 17.32Q68.29 17.32 68.93 16.96L68.93 16.96L68.93 16.96Q69.57 16.60 70.01 16.02L70.01 16.02L70.29 16.35L70.29 16.35Q69.57 17.26 68.76 17.76L68.76 17.76L68.76 17.76Q67.96 18.26 66.85 18.26L66.85 18.26L66.85 18.26Q65.95 18.26 65.25 17.85L65.25 17.85L65.25 17.85Q64.54 17.44 64.14 16.74L64.14 16.74L64.14 16.74Q63.74 16.03 63.74 15.15L63.74 15.15L63.74 15.15Q63.74 14.08 64.32 13.11L64.32 13.11L64.32 13.11Q64.90 12.14 65.87 11.55L65.87 11.55L65.87 11.55Q66.84 10.96 67.91 10.96L67.91 10.96ZM67.12 11.87L67.12 11.87Q66.58 11.87 66.16 12.26L66.16 12.26L66.16 12.26Q65.74 12.64 65.51 13.24L65.51 13.24L65.51 13.24Q65.27 13.85 65.27 14.49L65.27 14.49L65.27 14.49Q65.27 15.33 65.63 15.93L65.63 15.93L65.63 15.93Q66.15 15.64 66.73 15.11L66.73 15.11L66.73 15.11Q67.31 14.59 67.70 13.99L67.70 13.99L67.70 13.99Q68.10 13.38 68.10 12.89L68.10 12.89L68.10 12.89Q68.10 12.40 67.84 12.14L67.84 12.14L67.84 12.14Q67.58 11.87 67.12 11.87L67.12 11.87ZM75.14 11.00L75.14 11.00Q75.78 11.00 76.33 11.34L76.33 11.34L76.33 11.34Q76.89 11.68 77.20 12.38L77.20 12.38L75.74 13.16L75.74 13.16Q75.60 12.57 75.24 12.24L75.24 12.24L75.24 12.24Q74.87 11.91 74.45 11.91L74.45 11.91L74.45 11.91Q73.89 11.91 73.46 12.26L73.46 12.26L73.46 12.26Q73.02 12.60 72.79 13.15L72.79 13.15L72.79 13.15Q72.56 13.69 72.56 14.29L72.56 14.29L72.56 14.29Q72.56 15.23 72.86 15.92L72.86 15.92L72.86 15.92Q73.15 16.60 73.66 16.96L73.66 16.96L73.66 16.96Q74.17 17.32 74.82 17.32L74.82 17.32L74.82 17.32Q76.10 17.32 77.29 15.85L77.29 15.85L77.62 16.13L77.62 16.13Q76.92 17.15 76.12 17.70L76.12 17.70L76.12 17.70Q75.33 18.26 74.24 18.26L74.24 18.26L74.24 18.26Q73.36 18.26 72.66 17.84L72.66 17.84L72.66 17.84Q71.96 17.43 71.56 16.68L71.56 16.68L71.56 16.68Q71.16 15.93 71.16 14.95L71.16 14.95L71.16 14.95Q71.16 13.87 71.64 12.97L71.64 12.97L71.64 12.97Q72.11 12.07 73.02 11.54L73.02 11.54L73.02 11.54Q73.92 11.00 75.14 11.00L75.14 11.00ZM80.72 5.15L80.72 14.62L80.78 14.62L80.78 14.62Q81.09 13.26 81.79 12.11L81.79 12.11L81.79 12.11Q82.49 10.96 83.51 10.96L83.51 10.96L83.51 10.96Q83.99 10.96 84.22 11.26L84.22 11.26L84.22 11.26Q84.45 11.55 84.50 11.95L84.50 11.95L84.50 11.95Q84.56 12.35 84.56 12.92L84.56 12.92L84.56 16.80L84.56 16.80Q84.56 16.97 84.66 17.12L84.66 17.12L84.66 17.12Q84.77 17.26 84.97 17.26L84.97 17.26L84.97 17.26Q85.30 17.26 85.67 16.77L85.67 16.77L85.90 17.04L85.90 17.04Q85.67 17.51 85.22 17.85L85.22 17.85L85.22 17.85Q84.77 18.19 84.24 18.19L84.24 18.19L84.24 18.19Q82.91 18.19 82.91 16.72L82.91 16.72L82.91 13.05L82.91 13.05Q82.91 12.87 82.84 12.72L82.84 12.72L82.84 12.72Q82.78 12.57 82.63 12.57L82.63 12.57L82.63 12.57Q82.04 12.57 81.61 13.55L81.61 13.55L81.61 13.55Q81.19 14.53 80.95 15.82L80.95 15.82L80.95 15.82Q80.72 17.11 80.72 17.91L80.72 17.91L79.04 18.27L79.04 5.74L80.72 5.15Z"></path></g><defs data-v-fde0c5aa=""><!----></defs><g data-v-fde0c5aa="" id="7405d1d8-ea87-45f0-b8eb-02eae9c441e3" stroke="none" fill="#713B28" transform="matrix(1.2864076891179146,0,0,1.2864076891179146,40,129.41747697411336)"><path d="M15.965 16.258l.707-.707 10.39 10.39-.707.707z"></path><path d="M4.935 26.357L26.018 5.274l.707.707L5.642 27.065z"></path><path d="M31 1v4.194h-4.194V1H31m1-1h-6.194v6.194H32V0zM31 26.806V31h-4.194v-4.194H31m1-1h-6.194V32H32v-6.194zM5.194 26.806V31H1v-4.194h4.194m1-1H0V32h6.194v-6.194z"></path></g><!----></svg>