<svg data-v-fde0c5aa="" xmlns="http://www.w3.org/2000/svg" viewBox="0 0 300 300" class="iconAbove"><!----><defs data-v-fde0c5aa=""><!----></defs><rect data-v-fde0c5aa="" fill="transparent" x="0" y="0" width="300px" height="300px" class="logo-background-square"></rect><defs data-v-fde0c5aa=""><!----></defs><g data-v-fde0c5aa="" id="0a68c56b-af3a-4acb-8b2d-4b1c3d3ce35e" fill="#000000" transform="matrix(2.097958519807584,0,0,2.097958519807584,17.77616408905011,167.19252745963325)"><path d="M1.06 13.78L3.12 13.78L3.12 11.97L4.14 10.82L5.96 13.78L8.19 13.78L5.35 9.56L7.98 6.64L5.73 6.64L3.18 9.58L3.12 9.58L3.12 3.65L1.06 3.65ZM11.65 13.94C12.67 13.94 13.50 13.61 14.18 13.05C14.84 13.50 15.48 13.79 16.11 13.94L16.60 12.28C16.21 12.19 15.79 12.00 15.33 11.69C15.92 10.72 16.32 9.69 16.60 8.57L14.73 8.57C14.56 9.39 14.29 10.11 13.96 10.71C13.36 10.21 12.77 9.63 12.32 9.04C13.17 8.36 14.06 7.63 14.06 6.45C14.06 5.18 13.23 4.37 11.86 4.37C10.47 4.37 9.60 5.46 9.60 6.78C9.60 7.36 9.81 8.05 10.19 8.78C9.41 9.35 8.72 10.09 8.72 11.31C8.72 12.73 9.74 13.94 11.65 13.94ZM11.56 7.84C11.40 7.48 11.30 7.11 11.30 6.76C11.30 6.13 11.55 5.73 11.90 5.73C12.32 5.73 12.47 6.02 12.47 6.45C12.47 7.04 12.08 7.46 11.56 7.84ZM11.91 12.38C11.17 12.38 10.67 11.89 10.67 11.19C10.67 10.79 10.82 10.44 11.07 10.14C11.56 10.82 12.17 11.47 12.81 12.04C12.52 12.26 12.22 12.38 11.91 12.38ZM17.81 16.65L19.87 16.65L19.87 14.34L19.80 13.16C20.30 13.68 20.92 13.94 21.53 13.94C23.09 13.94 24.54 12.53 24.54 10.09C24.54 7.88 23.49 6.45 21.76 6.45C21.01 6.45 20.24 6.85 19.68 7.36L19.64 7.36L19.49 6.64L17.81 6.64ZM21.06 12.26C20.71 12.26 20.26 12.14 19.87 11.77L19.87 8.83C20.30 8.36 20.71 8.13 21.15 8.13C22.02 8.13 22.43 8.82 22.43 10.12C22.43 11.61 21.83 12.26 21.06 12.26ZM34.92 13.78L41.08 13.78L41.08 12.04L36.97 12.04L36.97 9.88L40.33 9.88L40.33 8.16L36.97 8.16L36.97 6.27L40.94 6.27L40.94 4.54L34.92 4.54ZM43.01 13.78L45.07 13.78L45.07 9.00C45.56 8.48 45.92 8.20 46.48 8.20C47.24 8.20 47.50 8.65 47.50 9.63L47.50 13.78L49.56 13.78L49.56 9.37C49.56 7.56 48.86 6.45 47.29 6.45C46.26 6.45 45.50 6.99 44.90 7.60L44.84 7.60L44.69 6.64L43.01 6.64ZM54.18 16.81C56.55 16.81 57.79 15.69 57.79 13.78L57.79 6.64L56.18 6.64L56.01 7.38L55.96 7.38C55.43 6.76 54.80 6.45 54.07 6.45C52.47 6.45 51.06 7.88 51.06 10.08C51.06 12.15 52.23 13.59 53.98 13.59C54.64 13.59 55.38 13.30 55.85 12.82L55.80 13.99C55.79 14.55 55.20 15.20 54.18 15.20C53.61 15.20 52.84 15.05 52.18 14.53L51.49 15.93C52.30 16.60 53.41 16.81 54.18 16.81ZM54.52 11.94C53.70 11.94 53.14 11.26 53.14 10.05C53.14 8.83 53.84 8.13 54.54 8.13C54.98 8.13 55.36 8.27 55.73 8.64L55.73 11.23C55.36 11.75 54.96 11.94 54.52 11.94ZM62.97 5.80C63.78 5.80 64.37 5.26 64.37 4.42C64.37 3.58 63.78 3.00 62.97 3.00C62.16 3.00 61.57 3.58 61.57 4.42C61.57 5.26 62.16 5.80 62.97 5.80ZM59.65 13.78L66.47 13.78L66.47 12.11L64.09 12.11L64.09 6.64L59.65 6.64L59.65 8.25L62.03 8.25L62.03 12.11L59.65 12.11ZM68.21 13.78L70.27 13.78L70.27 9.00C70.76 8.48 71.12 8.20 71.68 8.20C72.44 8.20 72.70 8.65 72.70 9.63L72.70 13.78L74.76 13.78L74.76 9.37C74.76 7.56 74.06 6.45 72.49 6.45C71.46 6.45 70.70 6.99 70.10 7.60L70.04 7.60L69.89 6.64L68.21 6.64ZM80.22 13.94C81.14 13.94 82.18 13.62 82.96 13.12L82.29 11.87C81.68 12.21 81.13 12.38 80.50 12.38C79.48 12.38 78.62 11.90 78.48 10.81L83.16 10.81C83.19 10.63 83.24 10.25 83.24 9.88C83.24 7.94 82.12 6.45 79.98 6.45C78.13 6.45 76.37 7.87 76.37 10.21C76.37 12.57 78.06 13.94 80.22 13.94ZM78.46 9.44C78.64 8.48 79.28 8.04 80.02 8.04C80.96 8.04 81.38 8.60 81.38 9.44ZM88.62 13.94C89.54 13.94 90.58 13.62 91.36 13.12L90.69 11.87C90.08 12.21 89.53 12.38 88.90 12.38C87.88 12.38 87.02 11.90 86.88 10.81L91.56 10.81C91.59 10.63 91.64 10.25 91.64 9.88C91.64 7.94 90.52 6.45 88.38 6.45C86.53 6.45 84.77 7.87 84.77 10.21C84.77 12.57 86.46 13.94 88.62 13.94ZM86.86 9.44C87.04 8.48 87.68 8.04 88.42 8.04C89.36 8.04 89.78 8.60 89.78 9.44ZM94.02 13.78L96.08 13.78L96.08 10.02C96.67 8.74 97.57 8.26 98.42 8.26C98.94 8.26 99.22 8.34 99.65 8.47L100.07 6.75C99.67 6.57 99.34 6.45 98.73 6.45C97.62 6.45 96.60 7.03 95.91 8.20L95.87 8.20L95.70 6.64L94.02 6.64ZM104.97 5.80C105.78 5.80 106.37 5.26 106.37 4.42C106.37 3.58 105.78 3.00 104.97 3.00C104.16 3.00 103.57 3.58 103.57 4.42C103.57 5.26 104.16 5.80 104.97 5.80ZM101.65 13.78L108.47 13.78L108.47 12.11L106.09 12.11L106.09 6.64L101.65 6.64L101.65 8.25L104.03 8.25L104.03 12.11L101.65 12.11ZM110.21 13.78L112.27 13.78L112.27 9.00C112.76 8.48 113.12 8.20 113.68 8.20C114.44 8.20 114.70 8.65 114.70 9.63L114.70 13.78L116.76 13.78L116.76 9.37C116.76 7.56 116.06 6.45 114.49 6.45C113.46 6.45 112.70 6.99 112.10 7.60L112.04 7.60L111.89 6.64L110.21 6.64ZM121.38 16.81C123.75 16.81 124.99 15.69 124.99 13.78L124.99 6.64L123.38 6.64L123.21 7.38L123.16 7.38C122.63 6.76 122.00 6.45 121.27 6.45C119.67 6.45 118.26 7.88 118.26 10.08C118.26 12.15 119.43 13.59 121.18 13.59C121.84 13.59 122.58 13.30 123.05 12.82L123.00 13.99C122.99 14.55 122.40 15.20 121.38 15.20C120.81 15.20 120.04 15.05 119.38 14.53L118.69 15.93C119.50 16.60 120.61 16.81 121.38 16.81ZM121.72 11.94C120.90 11.94 120.34 11.26 120.34 10.05C120.34 8.83 121.04 8.13 121.74 8.13C122.18 8.13 122.56 8.27 122.93 8.64L122.93 11.23C122.56 11.75 122.16 11.94 121.72 11.94Z"></path></g><defs data-v-fde0c5aa=""><linearGradient data-v-fde0c5aa="" gradientTransform="rotate(25)" id="b1f0013f-ec36-4a10-837c-9281c26b4e20" x1="0%" y1="0%" x2="100%" y2="0%"><stop data-v-fde0c5aa="" offset="0%" stop-color="#01695A" stop-opacity="1"></stop><stop data-v-fde0c5aa="" offset="100%" stop-color="#2CC26F" stop-opacity="1"></stop></linearGradient></defs><g data-v-fde0c5aa="" id="288414da-905d-48cd-ae90-3a6a4f46a15f" stroke="none" fill="url(#b1f0013f-ec36-4a10-837c-9281c26b4e20)" transform="matrix(0.14216275136080136,0,0,0.14216275136080136,113.60279492362416,90.11989521333659)"><path d="M376.8 262c2.9 16.3 17.1 28.2 33.7 28.2 18.9 0 34.3-15.3 34.3-34.2 0-18.9-15.3-34.3-34.2-34.3-16.6 0-30.8 11.9-33.7 28.2H135.4c-2.9-16.3-17.1-28.2-33.7-28.2-18.9 0-34.2 15.3-34.2 34.2 0 18.9 15.3 34.2 34.2 34.2 9.1 0 17.8-3.6 24.2-10 5-4.9 8.3-11.3 9.5-18.2h241.4z"></path><path d="M476.1 325.7c-13.4-13.4-35.1-13.4-48.5 0-5 5-8.3 11.4-9.5 18.3h-56.2c-12.6-.1-22.8-10.4-22.8-23 0-19.2-15.5-34.9-34.8-35h-96.6c-19.2.1-34.8 15.8-34.8 35 0 12.6-10.2 22.9-22.8 23H94c-1.2-6.9-4.5-13.3-9.5-18.3-13.4-13.3-35-13.2-48.3.1-13.3 13.4-13.2 35 .1 48.3 13.3 13.2 34.8 13.2 48.1 0 5-4.9 8.3-11.2 9.5-18.1h56.2c19.2-.1 34.8-15.8 34.8-35 0-12.6 10.2-22.9 22.8-23h96.6c12.6.1 22.8 10.4 22.8 23 0 19.2 15.5 34.9 34.8 35h56.2c1.2 6.9 4.5 13.2 9.5 18.1 13.4 13.4 35.1 13.4 48.5 0 13.3-13.3 13.4-35 0-48.4z"></path><path d="M391.6 391.3c-9.1 0-17.9 3.6-24.3 10.1-5.8 5.8-9.3 13.5-9.9 21.6h-8.1c-12.7-.1-23.9-8-28.3-19.9l-18.7-50.5a42.53 42.53 0 0 0-39.6-27.6h-13c-17.6 0-33.4 11-39.6 27.5l-18.7 50.6c-4.4 11.9-15.7 19.8-28.3 19.9H155c-1.5-18.7-17.9-32.6-36.6-31.1-18.7 1.5-32.6 17.9-31.1 36.6s17.9 32.6 36.6 31.1c8-.6 15.5-4.1 21.2-9.8 4.1-4.2 7.1-9.3 8.7-14.8h9.2c17.7-.1 33.4-11.1 39.6-27.7l18.7-50.5c4.4-11.8 15.7-19.7 28.3-19.7h13c12.6 0 23.9 7.8 28.3 19.7l18.7 50.6c6.2 16.6 21.9 27.6 39.6 27.7h9.2c1.8 5.5 4.7 10.6 8.6 14.8v-.1c7 6.5 15.1 10 24.3 10 18.9.1 34.3-15.2 34.3-34.1.1-19-15.1-34.3-34-34.4zM84.4 186.4l.1-.1c5-5 8.3-11.4 9.5-18.3h56.2c12.6.1 22.8 10.4 22.8 23 0 19.2 15.5 34.9 34.8 35h96.6c19.2-.1 34.8-15.8 34.8-35 0-12.6 10.2-22.9 22.8-23h56.2c1.2 6.9 4.5 13.3 9.5 18.3 13.4 13.4 35.1 13.4 48.4 0 13.4-13.4 13.4-35.1 0-48.4-13.4-13.4-35-13.4-48.4 0-5 4.9-8.3 11.2-9.5 18.1H362c-19.2.1-34.8 15.8-34.8 35 0 12.6-10.2 22.9-22.8 23h-96.6c-12.6-.1-22.8-10.4-22.8-23 0-19.2-15.5-34.9-34.8-35H94c-1.2-6.9-4.5-13.2-9.5-18.1-13.4-13.4-35.1-13.5-48.5-.1-13.4 13.4-13.5 35.1-.1 48.5 13.4 13.4 35.1 13.5 48.5.1z"></path><path d="M144.9 110.6c5.8-5.8 9.3-13.4 9.9-21.6h8.1c12.7.1 23.9 8 28.3 19.9l18.7 50.5a42.53 42.53 0 0 0 39.6 27.6h13c17.6 0 33.4-11 39.6-27.5l18.7-50.6c4.4-11.9 15.7-19.8 28.3-19.9h8.1c1.5 18.7 17.9 32.6 36.6 31.1s32.6-17.9 31.1-36.6-17.9-32.6-36.6-31.1c-8 .6-15.5 4.1-21.2 9.8-4.1 4.2-7.1 9.3-8.7 14.8h-9.2c-17.7.1-33.4 11.1-39.6 27.7l-18.7 50.5c-4.4 11.8-15.7 19.7-28.3 19.7h-13c-12.6 0-23.9-7.8-28.3-19.7l-18.7-50.6C196.4 88 180.7 77 163 76.9h-9.2c-1.8-5.5-4.7-10.6-8.6-14.8v.1c-7-6.5-15.1-10-24.3-10-9.1 0-17.9 3.6-24.3 10.1-13.3 13.4-13.3 35 .1 48.4 13.3 13.3 34.9 13.3 48.2-.1z"></path></g><!----></svg>