<svg data-v-fde0c5aa="" xmlns="http://www.w3.org/2000/svg" viewBox="0 0 300 300" class="iconLeftSlogan"><!----><defs data-v-fde0c5aa=""><!----></defs><rect data-v-fde0c5aa="" fill="#EC676F" x="0" y="0" width="300px" height="300px" class="logo-background-square"></rect><defs data-v-fde0c5aa=""><!----></defs><g data-v-fde0c5aa="" id="becb29c4-d00d-4f73-aca7-39d9c011b8d2" fill="#ffffff" transform="matrix(1.3034170726090384,0,0,1.3034170726090384,80.93655371455834,127.17437642815909)"><path d="M4.43 3.82L1.17 3.82L1.17 13.15L2.65 13.15L2.65 9.45L4.43 9.44C5.92 9.42 7.44 8.44 7.44 6.64C7.44 4.81 5.92 3.82 4.43 3.82ZM3.88 8.30L2.65 8.27L2.65 4.99L3.88 4.97C5.19 4.96 5.89 5.59 5.89 6.64C5.89 7.70 5.19 8.31 3.88 8.30ZM15.05 9.70C15.05 7.73 13.72 6.36 11.80 6.36C9.81 6.36 8.39 7.89 8.39 9.84C8.39 11.80 9.80 13.31 11.97 13.31C13.11 13.31 14.07 12.92 14.67 12.25L13.69 11.46C13.27 11.94 12.70 12.19 11.96 12.19C10.72 12.19 9.97 11.33 9.87 10.15L15.05 10.15ZM11.80 7.50C12.83 7.50 13.50 8.12 13.65 9.17L9.93 9.17C10.14 8.17 10.82 7.50 11.80 7.50ZM19.54 6.36C18.75 6.36 18.23 6.74 17.85 7.41L17.68 6.53L16.45 6.53L16.45 13.15L17.86 13.15L17.86 9.70C17.86 8.62 18.43 7.66 19.47 7.66C19.70 7.66 19.92 7.70 20.11 7.79L20.53 6.58C20.36 6.47 19.98 6.36 19.54 6.36ZM22.27 5.26C22.78 5.26 23.19 4.86 23.19 4.36C23.19 3.86 22.78 3.46 22.27 3.46C21.77 3.46 21.36 3.86 21.36 4.36C21.36 4.86 21.77 5.26 22.27 5.26ZM21.60 13.15L22.98 13.15L22.98 6.53L21.60 6.53ZM24.27 12.22C24.75 12.88 25.75 13.34 26.99 13.34C28.63 13.34 29.63 12.54 29.63 11.35C29.63 9.00 26.13 9.79 26.13 8.36C26.13 7.86 26.51 7.53 27.29 7.51C27.77 7.50 28.32 7.73 28.71 8.11L29.49 7.22C29.05 6.75 28.20 6.36 27.23 6.36C25.65 6.36 24.69 7.19 24.69 8.41C24.69 10.82 28.13 10.09 28.13 11.38C28.13 11.87 27.72 12.21 26.91 12.21C26.25 12.21 25.65 11.97 25.17 11.35ZM34.10 13.34C35.01 13.34 35.76 13.07 36.37 12.60L35.55 11.58C35.19 11.93 34.68 12.13 34.13 12.13C32.83 12.13 32.05 11.14 32.05 9.84C32.05 8.55 32.83 7.57 34.13 7.57C34.68 7.57 35.19 7.77 35.55 8.12L36.37 7.10C35.76 6.64 35.01 6.36 34.10 6.36C32.04 6.36 30.61 7.89 30.61 9.84C30.61 11.81 32.04 13.34 34.10 13.34ZM40.67 13.34C42.76 13.34 44.22 11.81 44.22 9.84C44.22 7.89 42.76 6.36 40.67 6.36C38.56 6.36 37.11 7.89 37.11 9.84C37.11 11.81 38.56 13.34 40.67 13.34ZM40.67 12.13C39.45 12.13 38.59 11.14 38.59 9.84C38.59 8.56 39.45 7.57 40.67 7.57C41.88 7.57 42.74 8.56 42.74 9.84C42.74 11.14 41.88 12.13 40.67 12.13ZM49.23 6.36C48.24 6.36 47.48 6.77 46.96 7.42L46.84 6.53L45.60 6.53L45.60 16.22L47.02 16.22L47.02 12.32C47.53 12.94 48.27 13.31 49.23 13.31C50.95 13.31 52.33 12.00 52.33 9.84C52.33 7.69 50.95 6.36 49.23 6.36ZM48.90 12.12C47.66 12.12 46.86 11.14 46.86 9.84C46.86 8.55 47.66 7.55 48.90 7.55C50.09 7.55 50.88 8.55 50.88 9.84C50.88 11.14 50.09 12.12 48.90 12.12ZM60.01 9.70C60.01 7.73 58.68 6.36 56.76 6.36C54.77 6.36 53.35 7.89 53.35 9.84C53.35 11.80 54.76 13.31 56.93 13.31C58.07 13.31 59.03 12.92 59.63 12.25L58.65 11.46C58.23 11.94 57.66 12.19 56.92 12.19C55.68 12.19 54.94 11.33 54.83 10.15L60.01 10.15ZM56.76 7.50C57.79 7.50 58.46 8.12 58.61 9.17L54.89 9.17C55.10 8.17 55.78 7.50 56.76 7.50ZM71.09 5.07L71.09 3.82L65.41 3.82L65.41 13.15L71.09 13.15L71.09 11.90L66.89 11.90L66.89 9.07L70.36 9.07L70.36 7.90L66.89 7.90L66.89 5.07ZM76.15 6.36C75.22 6.36 74.52 6.75 74.11 7.32L73.94 6.53L72.70 6.53L72.70 13.15L74.11 13.15L74.11 9.11C74.23 7.95 75.02 7.57 75.76 7.57C76.78 7.57 77.22 8.30 77.22 9.38L77.22 13.15L78.63 13.15L78.63 9.06C78.63 7 77.31 6.36 76.15 6.36ZM85.53 6.53L85.34 7.47C84.83 6.80 84.06 6.36 83.04 6.36C81.32 6.36 79.95 7.67 79.95 9.81C79.95 11.96 81.32 13.27 83.04 13.27C84 13.27 84.76 12.89 85.27 12.26L85.27 12.43C85.27 14.13 84.76 15.02 83.36 15.02C82.99 15.02 82.60 14.95 82.25 14.79L81.93 15.98C82.37 16.13 82.91 16.22 83.43 16.22C85.59 16.22 86.68 14.95 86.68 12.54L86.68 6.53ZM83.37 12.07C82.18 12.07 81.39 11.11 81.39 9.81C81.39 8.53 82.18 7.54 83.37 7.54C84.61 7.54 85.41 8.53 85.41 9.81C85.41 11.11 84.61 12.07 83.37 12.07ZM89.28 5.26C89.79 5.26 90.20 4.86 90.20 4.36C90.20 3.86 89.79 3.46 89.28 3.46C88.78 3.46 88.38 3.86 88.38 4.36C88.38 4.86 88.78 5.26 89.28 5.26ZM88.61 13.15L89.99 13.15L89.99 6.53L88.61 6.53ZM95.38 6.36C94.44 6.36 93.74 6.75 93.33 7.32L93.16 6.53L91.92 6.53L91.92 13.15L93.33 13.15L93.33 9.11C93.45 7.95 94.24 7.57 94.98 7.57C96.00 7.57 96.44 8.30 96.44 9.38L96.44 13.15L97.85 13.15L97.85 9.06C97.85 7 96.53 6.36 95.38 6.36ZM105.83 9.70C105.83 7.73 104.50 6.36 102.58 6.36C100.60 6.36 99.17 7.89 99.17 9.84C99.17 11.80 100.58 13.31 102.75 13.31C103.89 13.31 104.85 12.92 105.45 12.25L104.47 11.46C104.05 11.94 103.48 12.19 102.74 12.19C101.50 12.19 100.76 11.33 100.65 10.15L105.83 10.15ZM102.58 7.50C103.61 7.50 104.29 8.12 104.43 9.17L100.71 9.17C100.92 8.17 101.60 7.50 102.58 7.50ZM113.53 9.70C113.53 7.73 112.20 6.36 110.28 6.36C108.30 6.36 106.87 7.89 106.87 9.84C106.87 11.80 108.28 13.31 110.45 13.31C111.59 13.31 112.55 12.92 113.15 12.25L112.17 11.46C111.75 11.94 111.18 12.19 110.44 12.19C109.20 12.19 108.46 11.33 108.35 10.15L113.53 10.15ZM110.28 7.50C111.31 7.50 111.99 8.12 112.13 9.17L108.41 9.17C108.62 8.17 109.30 7.50 110.28 7.50ZM118.02 6.36C117.24 6.36 116.71 6.74 116.33 7.41L116.16 6.53L114.93 6.53L114.93 13.15L116.35 13.15L116.35 9.70C116.35 8.62 116.91 7.66 117.95 7.66C118.18 7.66 118.40 7.70 118.59 7.79L119.01 6.58C118.84 6.47 118.46 6.36 118.02 6.36ZM120.75 5.26C121.26 5.26 121.67 4.86 121.67 4.36C121.67 3.86 121.26 3.46 120.75 3.46C120.25 3.46 119.85 3.86 119.85 4.36C119.85 4.86 120.25 5.26 120.75 5.26ZM120.08 13.15L121.46 13.15L121.46 6.53L120.08 6.53ZM126.85 6.36C125.91 6.36 125.21 6.75 124.80 7.32L124.63 6.53L123.39 6.53L123.39 13.15L124.80 13.15L124.80 9.11C124.92 7.95 125.71 7.57 126.45 7.57C127.47 7.57 127.91 8.30 127.91 9.38L127.91 13.15L129.32 13.15L129.32 9.06C129.32 7 128.00 6.36 126.85 6.36ZM136.22 6.53L136.03 7.47C135.52 6.80 134.75 6.36 133.73 6.36C132.01 6.36 130.64 7.67 130.64 9.81C130.64 11.96 132.01 13.27 133.73 13.27C134.69 13.27 135.45 12.89 135.96 12.26L135.96 12.43C135.96 14.13 135.45 15.02 134.05 15.02C133.69 15.02 133.29 14.95 132.94 14.79L132.62 15.98C133.06 16.13 133.60 16.22 134.12 16.22C136.28 16.22 137.38 14.95 137.38 12.54L137.38 6.53ZM134.06 12.07C132.87 12.07 132.08 11.11 132.08 9.81C132.08 8.53 132.87 7.54 134.06 7.54C135.30 7.54 136.11 8.53 136.11 9.81C136.11 11.11 135.30 12.07 134.06 12.07Z"></path></g><defs data-v-fde0c5aa=""><!----></defs><g data-v-fde0c5aa="" id="df341617-753c-4bff-8f5e-a158e27dcdab" stroke="none" fill="#391B51" transform="matrix(0.3971737069130725,0,0,0.3971737069130725,35.091727408753314,130.1480672543105)"><path d="M70.592 19.637v75.529l15.944-12.55V7.087l-15.944 12.55zm8.043 3.94l3.512-2.666v5.908l-3.512 2.666v-5.908zm0 7.256l3.512-2.667v5.58l-3.512 2.667v-5.58zm0 12.598l3.512-2.667v5.91l-3.512 2.667v-5.91zm-4.41-16.509l3.514-2.667v5.909l-3.514 2.667v-5.909zm0 7.255l3.514-2.666v5.581l-3.514 2.666v-5.581zm0 12.599l3.514-2.667v5.909l-3.514 2.666v-5.908zm0 7.253l3.514-2.663v5.581l-3.514 2.667v-5.585zm4.076 21.28l-3.514 2.668v-5.582l3.514-2.666v5.58zm0-6.928l-3.514 2.667v-5.909l3.514-2.668v5.91zm.334-17.693l3.512-2.667v5.583l-3.512 2.666v-5.582zm4.072 21.275l-3.512 2.667v-5.581l3.512-2.667v5.581zm0-6.928l-3.512 2.667v-5.91l3.512-2.665v5.908zM85.122 4.818l.023-.018-.105.018H28.303L12.388 17.344l-.03.006h.023l-.023.018.105-.018H69.2L85.116 4.823l.029-.005zM12.358 19.658v75.334h28.46l19.67-15.662v15.662h7.324V19.658H12.358zm14.649 7.324h5.231v6.278h-5.231v-6.278zm0 7.324h5.231v5.231h-5.231v-5.231zm0 12.556h5.231v5.232h-5.231v-5.232zm-6.278-19.88h5.231v6.278h-5.231v-6.278zm0 7.324h5.231v5.231h-5.231v-5.231zm0 12.556h5.231v5.232h-5.231v-5.232zm0 6.277h5.231v5.231h-5.231v-5.231zm5.231 26.159h-5.231V73.02h5.231v6.278zm0-7.323h-5.231v-5.229h5.231v5.229zm1.047-18.836h5.231v5.231h-5.231v-5.231zm5.231 26.159h-5.231V73.02h5.231v6.278zm0-7.323h-5.231v-5.229h5.231v5.229zm20.926-44.993h5.232v6.278h-5.232v-6.278zm0 7.324h5.232v5.231h-5.232v-5.231zm0 12.556h5.232v5.232h-5.232v-5.232zm0 6.277h5.232v5.231h-5.232v-5.231zm-6.277-26.157h5.231v6.278h-5.231v-6.278zm0 7.324h5.231v5.231h-5.231v-5.231zm0 12.556h5.231v5.232h-5.231v-5.232zm0 6.277h5.231v5.231h-5.231v-5.231zm-6.278 39.759V66.742h19.879v10.42L40.609 92.898z"></path></g><defs data-v-fde0c5aa=""><!----></defs><g data-v-fde0c5aa="" id="d34bb6e1-14fa-40dd-a8ae-8b75a178f62d" fill="#ffffff" transform="matrix(0.5974305622670771,0,0,0.5974305622670771,82.0911448374994,156.3442796238986)"><path d="M0.62 8.90L0.62 8.90L0.62 8.90Q0.62 7.38 1.20 6.16L1.20 6.16L1.20 6.16Q1.79 4.94 3.02 4.19L3.02 4.19L3.02 4.19Q4.24 3.44 5.92 3.44L5.92 3.44L5.92 3.44Q6.78 3.44 7.64 3.70L7.64 3.70L7.64 3.70Q8.51 3.95 9.03 4.20L9.03 4.20L9.55 4.47L9.55 4.47Q9.59 4.47 9.69 4.40L9.69 4.40L9.69 4.40Q9.79 4.33 9.84 4.33L9.84 4.33L9.84 4.33Q9.91 4.33 9.98 4.38L9.98 4.38L9.98 4.38Q10.05 4.44 10.05 4.55L10.05 4.55L10.05 4.55Q10.07 4.96 10.12 5.41L10.12 5.41L10.12 5.41Q10.16 5.87 10.21 6.16L10.21 6.16L10.21 6.16Q10.25 6.45 10.25 6.51L10.25 6.51L10.25 6.51Q10.25 6.76 10.08 6.76L10.08 6.76L10.08 6.76Q9.95 6.76 9.84 6.57L9.84 6.57L9.84 6.57Q8.48 4.02 5.92 4.02L5.92 4.02L5.92 4.02Q4.17 4.02 3.05 5.14L3.05 5.14L3.05 5.14Q1.93 6.26 1.93 8.06L1.93 8.06L1.93 8.06Q1.93 9.06 2.19 9.93L2.19 9.93L2.19 9.93Q2.45 10.79 2.98 11.51L2.98 11.51L2.98 11.51Q3.50 12.24 4.42 12.66L4.42 12.66L4.42 12.66Q5.35 13.08 6.58 13.08L6.58 13.08L6.58 13.08Q8.60 13.08 9.97 10.98L9.97 10.98L9.97 10.98Q10.02 10.88 10.18 10.88L10.18 10.88L10.18 10.88Q10.30 10.88 10.30 11.07L10.30 11.07L10.30 11.07Q10.30 11.23 10.26 11.49L10.26 11.49L10.26 11.49Q10.21 11.75 10.14 12.06L10.14 12.06L10.14 12.06Q10.07 12.38 10.05 12.45L10.05 12.45L10.05 12.45Q10.02 12.60 9.83 12.70L9.83 12.70L9.83 12.70Q9.07 13.06 8.64 13.24L8.64 13.24L8.64 13.24Q8.22 13.43 7.56 13.57L7.56 13.57L7.56 13.57Q6.90 13.72 6.22 13.72L6.22 13.72L6.22 13.72Q5.00 13.72 4.02 13.43L4.02 13.43L4.02 13.43Q3.04 13.13 2.42 12.66L2.42 12.66L2.42 12.66Q1.79 12.18 1.37 11.54L1.37 11.54L1.37 11.54Q0.95 10.91 0.78 10.25L0.78 10.25L0.78 10.25Q0.62 9.60 0.62 8.90ZM18.58 3.70L18.58 3.70L18.58 3.70Q18.58 3.47 18.98 3.47L18.98 3.47L21.31 3.47L21.31 3.47Q21.63 3.47 22.05 3.45L22.05 3.45L22.05 3.45Q22.47 3.43 22.71 3.43L22.71 3.43L22.71 3.43Q23.97 3.43 24.86 4.07L24.86 4.07L24.86 4.07Q25.76 4.70 25.76 5.78L25.76 5.78L25.76 5.78Q25.76 6.50 25.49 7.03L25.49 7.03L25.49 7.03Q25.21 7.57 24.89 7.81L24.89 7.81L24.89 7.81Q24.56 8.05 24.28 8.22L24.28 8.22L24.28 8.22Q24.01 8.40 24.01 8.46L24.01 8.46L24.01 8.46Q24.01 8.62 25.19 10.27L25.19 10.27L25.19 10.27Q26.36 11.91 26.80 12.38L26.80 12.38L26.80 12.38Q27.33 13.03 28.08 13.03L28.08 13.03L28.08 13.03Q28.28 13.03 28.28 13.20L28.28 13.20L28.28 13.20Q28.28 13.41 28.11 13.48L28.11 13.48L28.11 13.48Q27.94 13.55 27.24 13.55L27.24 13.55L27.24 13.55Q26.59 13.55 26.04 13.23L26.04 13.23L26.04 13.23Q25.34 12.82 23.67 10.09L23.67 10.09L23.67 10.09Q23.58 9.94 23.53 9.87L23.53 9.87L23.53 9.87Q22.86 8.78 22.50 8.78L22.50 8.78L22.20 8.78L21.35 8.78L21.35 8.78Q21.18 8.78 21.15 8.92L21.15 8.92L21.15 8.92Q21.11 9.06 21.11 9.77L21.11 9.77L21.11 9.77Q21.11 10.44 21.11 10.88L21.11 10.88L21.11 10.88Q21.11 11.31 21.12 11.43L21.12 11.43L21.12 11.43Q21.13 11.55 21.13 11.63L21.13 11.63L21.13 11.63Q21.13 11.70 21.13 11.75L21.13 11.75L21.13 11.75Q21.13 12.32 21.39 12.63L21.39 12.63L21.39 12.63Q21.66 12.95 21.99 13.00L21.99 13.00L21.99 13.00Q22.32 13.05 22.58 13.11L22.58 13.11L22.58 13.11Q22.85 13.17 22.85 13.31L22.85 13.31L22.85 13.31Q22.85 13.54 22.60 13.54L22.60 13.54L22.60 13.54Q22.58 13.54 21.63 13.49L21.63 13.49L21.63 13.49Q20.68 13.44 20.59 13.44L20.59 13.44L20.59 13.44Q20.19 13.44 19.63 13.47L19.63 13.47L19.63 13.47Q19.07 13.50 19.05 13.50L19.05 13.50L19.05 13.50Q18.76 13.50 18.76 13.27L18.76 13.27L18.76 13.27Q18.76 13.12 18.94 13.05L18.94 13.05L18.94 13.05Q19.12 12.99 19.35 12.96L19.35 12.96L19.35 12.96Q19.57 12.94 19.75 12.66L19.75 12.66L19.75 12.66Q19.94 12.38 19.94 11.86L19.94 11.86L19.94 11.86Q19.94 11.49 19.94 9.90L19.94 9.90L19.94 9.90Q19.95 8.30 19.95 7.45L19.95 7.45L19.95 7.45Q19.95 6.58 19.94 5.86L19.94 5.86L19.94 5.86Q19.94 5.14 19.94 5.08L19.94 5.08L19.94 5.08Q19.94 4.56 19.73 4.29L19.73 4.29L19.73 4.29Q19.52 4.02 19.26 3.98L19.26 3.98L19.26 3.98Q19.00 3.95 18.79 3.89L18.79 3.89L18.79 3.89Q18.58 3.84 18.58 3.70ZM21.11 5.54L21.11 5.94L21.11 5.94Q21.11 7.38 21.13 7.72L21.13 7.72L21.13 7.72Q21.14 8.06 21.22 8.12L21.22 8.12L21.22 8.12Q21.43 8.25 21.83 8.25L21.83 8.25L21.97 8.25L22.37 8.25L22.37 8.25Q23.56 8.25 24.07 7.70L24.07 7.70L24.07 7.70Q24.58 7.15 24.58 6.30L24.58 6.30L24.58 6.30Q24.58 5.43 23.91 4.72L23.91 4.72L23.91 4.72Q23.23 4.00 21.85 4.00L21.85 4.00L21.85 4.00Q21.34 4.00 21.22 4.28L21.22 4.28L21.22 4.28Q21.11 4.55 21.11 5.54L21.11 5.54ZM35.63 3.65L35.63 3.65L35.63 3.65Q35.63 3.46 36.02 3.46L36.02 3.46L36.02 3.46Q36.08 3.46 36.20 3.47L36.20 3.47L36.20 3.47Q36.33 3.49 36.40 3.49L36.40 3.49L36.40 3.49Q36.44 3.49 37.72 3.52L37.72 3.52L37.72 3.52Q38.99 3.56 39.82 3.56L39.82 3.56L39.82 3.56Q40.11 3.56 41.27 3.53L41.27 3.53L41.27 3.53Q42.42 3.50 42.62 3.50L42.62 3.50L42.62 3.50Q42.88 3.50 42.88 3.82L42.88 3.82L42.88 3.82Q42.88 3.91 42.80 4.38L42.80 4.38L42.80 4.38Q42.71 4.84 42.71 5.25L42.71 5.25L42.71 5.25Q42.71 5.38 42.64 5.47L42.64 5.47L42.64 5.47Q42.57 5.56 42.49 5.56L42.49 5.56L42.49 5.56Q42.28 5.56 42.28 5.26L42.28 5.26L42.28 5.26Q42.28 4.89 42.04 4.58L42.04 4.58L42.04 4.58Q41.80 4.27 41.45 4.26L41.45 4.26L41.45 4.26Q40.19 4.16 39.52 4.16L39.52 4.16L39.16 4.16L39.16 4.16Q38.43 4.16 38.31 4.26L38.31 4.26L38.31 4.26Q38.19 4.37 38.16 5.01L38.16 5.01L38.16 5.01Q38.11 6.02 38.11 7.35L38.11 7.35L38.11 7.35Q38.11 8.05 38.37 8.06L38.37 8.06L38.72 8.06L39.31 8.06L39.75 8.06L39.75 8.06Q40.59 8.06 40.87 8.01L40.87 8.01L40.87 8.01Q41.15 7.95 41.37 7.80L41.37 7.80L41.37 7.80Q41.64 7.62 41.69 7.28L41.69 7.28L41.69 7.28Q41.73 7.04 41.89 7.04L41.89 7.04L41.89 7.04Q42.01 7.04 42.04 7.08L42.04 7.08L42.04 7.08Q42.07 7.13 42.07 7.27L42.07 7.27L42.07 7.27Q42.07 7.36 42.01 7.91L42.01 7.91L42.01 7.91Q41.96 8.46 41.96 8.74L41.96 8.74L41.96 8.74Q41.96 9.00 41.98 9.24L41.98 9.24L41.98 9.24Q42 9.48 42 9.59L42 9.59L42 9.59Q42 9.94 41.90 9.94L41.90 9.94L41.90 9.94Q41.69 9.94 41.59 9.60L41.59 9.60L41.59 9.60Q41.40 9.02 41.24 8.92L41.24 8.92L41.24 8.92Q40.95 8.72 39.90 8.72L39.90 8.72L39.90 8.72Q39.48 8.72 39.22 8.72L39.22 8.72L39.22 8.72Q38.96 8.72 38.89 8.71L38.89 8.71L38.89 8.71Q38.81 8.71 38.76 8.71L38.76 8.71L38.76 8.71Q38.71 8.71 38.67 8.71L38.67 8.71L38.67 8.71Q38.09 8.71 38.09 8.97L38.09 8.97L38.09 8.97Q38.09 9.38 38.08 9.99L38.08 9.99L38.08 9.99Q38.07 10.60 38.07 10.99L38.07 10.99L38.07 11.55L38.07 11.55Q38.07 12.56 38.40 12.66L38.40 12.66L38.40 12.66Q38.75 12.77 39.00 12.77L39.00 12.77L39.00 12.77Q40.05 12.77 40.84 12.67L40.84 12.67L40.84 12.67Q41.64 12.57 42.04 12.42L42.04 12.42L42.04 12.42Q42.43 12.28 42.70 12.10L42.70 12.10L42.70 12.10Q42.97 11.93 43.04 11.78L43.04 11.78L43.04 11.78Q43.12 11.63 43.20 11.54L43.20 11.54L43.20 11.54Q43.27 11.44 43.36 11.44L43.36 11.44L43.36 11.44Q43.53 11.44 43.53 11.68L43.53 11.68L43.53 11.68Q43.53 12.28 42.92 12.89L42.92 12.89L42.92 12.89Q42.32 13.51 41.87 13.51L41.87 13.51L41.87 13.51Q40.87 13.51 39.60 13.44L39.60 13.44L39.60 13.44Q38.33 13.37 38.02 13.37L38.02 13.37L38.02 13.37Q37.63 13.37 37.04 13.43L37.04 13.43L37.04 13.43Q36.46 13.50 36.12 13.50L36.12 13.50L36.12 13.50Q35.83 13.50 35.83 13.36L35.83 13.36L35.83 13.36Q35.83 13.23 35.83 13.19L35.83 13.19L35.83 13.19Q35.83 13.15 35.87 13.12L35.87 13.12L35.87 13.12Q35.91 13.09 35.96 13.08L35.96 13.08L35.96 13.08Q36.01 13.08 36.14 13.03L36.14 13.03L36.14 13.03Q36.27 12.99 36.43 12.92L36.43 12.92L36.43 12.92Q36.76 12.75 36.87 12.26L36.87 12.26L36.87 12.26Q36.97 11.77 36.97 10.21L36.97 10.21L36.97 8.47L36.97 8.47Q36.97 8.09 37.00 7.29L37.00 7.29L37.00 7.29Q37.02 6.50 37.02 6.05L37.02 6.05L37.02 6.05Q37.02 5.67 36.99 4.77L36.99 4.77L36.99 4.77Q36.97 4.37 36.64 4.14L36.64 4.14L36.64 4.14Q36.30 3.92 35.85 3.91L35.85 3.91L35.85 3.91Q35.63 3.91 35.63 3.65ZM51.09 13.33L51.09 13.33L51.09 13.33Q51.09 13.13 51.30 13.06L51.30 13.06L51.30 13.06Q51.74 12.89 52.08 12.31L52.08 12.31L52.08 12.31Q52.42 11.73 53.75 8.83L53.75 8.83L53.75 8.83Q55.12 5.87 56.17 3.63L56.17 3.63L56.17 3.63Q56.27 3.42 56.34 3.36L56.34 3.36L56.34 3.36Q56.42 3.30 56.59 3.30L56.59 3.30L56.59 3.30Q56.71 3.30 56.76 3.36L56.76 3.36L56.76 3.36Q56.80 3.42 56.94 3.82L56.94 3.82L56.94 3.82Q57.02 4.06 57.08 4.23L57.08 4.23L57.08 4.23Q57.15 4.40 57.29 4.77L57.29 4.77L57.29 4.77Q57.43 5.15 57.60 5.56L57.60 5.56L57.60 5.56Q58.04 6.66 59.14 9.22L59.14 9.22L59.14 9.22Q60.24 11.77 60.34 11.98L60.34 11.98L60.34 11.98Q60.58 12.46 60.87 12.71L60.87 12.71L60.87 12.71Q61.17 12.95 61.38 12.97L61.38 12.97L61.38 12.97Q61.60 12.99 61.75 13.04L61.75 13.04L61.75 13.04Q61.89 13.09 61.89 13.26L61.89 13.26L61.89 13.26Q61.89 13.47 61.52 13.47L61.52 13.47L61.52 13.47Q61.36 13.47 60.91 13.43L60.91 13.43L60.91 13.43Q60.47 13.38 60.26 13.38L60.26 13.38L60.26 13.38Q59.99 13.38 59.57 13.41L59.57 13.41L59.57 13.41Q59.15 13.44 58.95 13.44L58.95 13.44L58.95 13.44Q58.52 13.44 58.40 13.40L58.40 13.40L58.40 13.40Q58.28 13.37 58.28 13.24L58.28 13.24L58.28 13.24Q58.28 13.15 58.39 13.08L58.39 13.08L58.39 13.08Q58.51 13.02 58.63 13.00L58.63 13.00L58.63 13.00Q58.76 12.98 58.87 12.87L58.87 12.87L58.87 12.87Q58.98 12.77 58.98 12.59L58.98 12.59L58.98 12.59Q58.98 12.28 58.63 11.33L58.63 11.33L58.63 11.33Q58.28 10.37 58.04 9.93L58.04 9.93L58.04 9.93Q57.92 9.69 57.47 9.69L57.47 9.69L57.47 9.69Q57.40 9.69 56.85 9.70L56.85 9.70L56.85 9.70Q56.31 9.72 55.78 9.72L55.78 9.72L55.03 9.72L55.03 9.72Q54.40 9.72 54.24 9.79L54.24 9.79L54.24 9.79Q54.08 9.86 53.96 10.12L53.96 10.12L53.96 10.12Q53.87 10.30 53.68 10.70L53.68 10.70L53.68 10.70Q53.48 11.10 53.41 11.26L53.41 11.26L53.41 11.26Q53.34 11.41 53.23 11.65L53.23 11.65L53.23 11.65Q53.13 11.90 53.09 12.05L53.09 12.05L53.09 12.05Q53.06 12.19 53.06 12.31L53.06 12.31L53.06 12.31Q53.06 12.63 53.22 12.80L53.22 12.80L53.22 12.80Q53.38 12.96 53.58 12.98L53.58 12.98L53.58 12.98Q53.77 13.01 53.93 13.06L53.93 13.06L53.93 13.06Q54.10 13.12 54.10 13.26L54.10 13.26L54.10 13.26Q54.10 13.36 54.05 13.40L54.05 13.40L54.05 13.40Q54.01 13.45 53.86 13.45L53.86 13.45L53.86 13.45Q53.77 13.45 53.38 13.45L53.38 13.45L53.38 13.45Q52.98 13.44 52.70 13.44L52.70 13.44L52.70 13.44Q52.39 13.44 52.00 13.47L52.00 13.47L52.00 13.47Q51.62 13.50 51.49 13.50L51.49 13.50L51.49 13.50Q51.09 13.50 51.09 13.33ZM54.60 8.71L54.60 8.71L54.60 8.71Q54.60 8.89 54.73 8.93L54.73 8.93L54.73 8.93Q54.85 8.97 55.31 8.97L55.31 8.97L55.75 8.97L57.08 8.96L57.08 8.96Q57.62 8.96 57.62 8.74L57.62 8.74L57.62 8.74Q57.62 8.55 56.94 7.01L56.94 7.01L56.94 7.01Q56.25 5.46 56.07 5.46L56.07 5.46L56.07 5.46Q55.94 5.46 55.27 7.01L55.27 7.01L55.27 7.01Q54.60 8.55 54.60 8.71ZM68.22 5.32L68.22 5.32L68.22 5.32Q68.22 4.76 68.36 3.88L68.36 3.88L68.36 3.88Q68.36 3.85 68.37 3.78L68.37 3.78L68.37 3.78Q68.38 3.71 68.38 3.69L68.38 3.69L68.38 3.69Q68.39 3.67 68.40 3.62L68.40 3.62L68.40 3.62Q68.40 3.57 68.42 3.55L68.42 3.55L68.42 3.55Q68.43 3.53 68.45 3.49L68.45 3.49L68.45 3.49Q68.47 3.46 68.50 3.44L68.50 3.44L68.50 3.44Q68.53 3.43 68.57 3.42L68.57 3.42L68.57 3.42Q68.61 3.40 68.67 3.39L68.67 3.39L68.67 3.39Q68.73 3.39 68.80 3.39L68.80 3.39L68.80 3.39Q69.02 3.39 69.98 3.44L69.98 3.44L69.98 3.44Q70.94 3.50 72.74 3.50L72.74 3.50L72.74 3.50Q75.82 3.50 77.06 3.43L77.06 3.43L77.06 3.43Q77.07 3.43 77.11 3.42L77.11 3.42L77.11 3.42Q77.14 3.42 77.15 3.42L77.15 3.42L77.15 3.42Q77.31 3.42 77.36 3.50L77.36 3.50L77.36 3.50Q77.42 3.58 77.42 3.65L77.42 3.65L77.42 3.65Q77.42 3.75 77.46 4.24L77.46 4.24L77.46 4.24Q77.50 4.73 77.50 4.79L77.50 4.79L77.50 4.79Q77.50 5.14 77.46 5.23L77.46 5.23L77.46 5.23Q77.42 5.32 77.28 5.32L77.28 5.32L77.28 5.32Q77.17 5.32 77.13 5.15L77.13 5.15L77.13 5.15Q77.01 4.75 76.93 4.60L76.93 4.60L76.93 4.60Q76.85 4.45 76.57 4.34L76.57 4.34L76.57 4.34Q76.29 4.23 75.71 4.23L75.71 4.23L73.89 4.23L73.89 4.23Q73.56 4.23 73.48 4.36L73.48 4.36L73.48 4.36Q73.40 4.49 73.40 5.12L73.40 5.12L73.40 5.81L73.40 5.81Q73.40 7.69 73.38 9.11L73.38 9.11L73.38 9.11Q73.36 10.54 73.36 10.93L73.36 10.93L73.36 10.93Q73.36 11.13 73.35 11.43L73.35 11.43L73.35 11.43Q73.35 11.73 73.35 11.84L73.35 11.84L73.35 11.84Q73.35 12.45 73.54 12.64L73.54 12.64L73.54 12.64Q73.72 12.81 73.95 12.90L73.95 12.90L73.95 12.90Q74.17 12.99 74.33 13.01L74.33 13.01L74.33 13.01Q74.49 13.02 74.61 13.08L74.61 13.08L74.61 13.08Q74.72 13.13 74.72 13.26L74.72 13.26L74.72 13.26Q74.72 13.41 74.65 13.45L74.65 13.45L74.65 13.45Q74.58 13.50 74.38 13.50L74.38 13.50L74.38 13.50Q74.21 13.50 73.64 13.44L73.64 13.44L73.64 13.44Q73.07 13.38 72.83 13.38L72.83 13.38L72.83 13.38Q72.66 13.38 72.15 13.43L72.15 13.43L72.15 13.43Q71.64 13.48 71.40 13.48L71.40 13.48L71.40 13.48Q70.88 13.48 70.88 13.26L70.88 13.26L70.88 13.26Q70.88 13.12 70.97 13.07L70.97 13.07L70.97 13.07Q71.05 13.02 71.30 12.98L71.30 12.98L71.30 12.98Q71.54 12.95 71.61 12.94L71.61 12.94L71.61 12.94Q72.09 12.82 72.14 12.38L72.14 12.38L72.14 12.38Q72.28 11.14 72.28 7.08L72.28 7.08L72.27 4.58L72.27 4.58Q72.27 4.31 72.11 4.25L72.11 4.25L72.11 4.25Q71.96 4.19 71.20 4.19L71.20 4.19L71.20 4.19Q70.22 4.19 69.73 4.24L69.73 4.24L69.73 4.24Q69.23 4.30 69.15 4.35L69.15 4.35L69.15 4.35Q69.06 4.40 68.95 4.54L68.95 4.54L68.95 4.54Q68.82 4.70 68.75 4.91L68.75 4.91L68.75 4.91Q68.67 5.11 68.65 5.24L68.65 5.24L68.65 5.24Q68.63 5.38 68.57 5.47L68.57 5.47L68.57 5.47Q68.50 5.56 68.38 5.56L68.38 5.56L68.38 5.56Q68.22 5.56 68.22 5.32ZM85.06 3.71L85.06 3.71L85.06 3.71Q85.06 3.50 85.46 3.50L85.46 3.50L85.46 3.50Q85.60 3.50 86.10 3.53L86.10 3.53L86.10 3.53Q86.60 3.56 87.04 3.56L87.04 3.56L87.04 3.56Q87.30 3.56 87.55 3.54L87.55 3.54L87.55 3.54Q87.79 3.53 88.27 3.53L88.27 3.53L88.27 3.53Q88.65 3.53 88.65 3.72L88.65 3.72L88.65 3.72Q88.65 3.84 88.00 4.10L88.00 4.10L88.00 4.10Q87.56 4.28 87.56 5.71L87.56 5.71L87.56 5.71Q87.56 7.60 87.54 9.05L87.54 9.05L87.54 9.05Q87.51 10.50 87.51 10.89L87.51 10.89L87.51 10.89Q87.51 12.07 87.86 12.59L87.86 12.59L87.86 12.59Q88.17 13.02 88.54 13.02L88.54 13.02L88.54 13.02Q88.56 13.02 88.68 13.03L88.68 13.03L88.68 13.03Q88.79 13.03 88.82 13.03L88.82 13.03L88.82 13.03Q88.91 13.03 89.01 13.08L89.01 13.08L89.01 13.08Q89.11 13.13 89.11 13.19L89.11 13.19L89.11 13.19Q89.11 13.34 89.03 13.39L89.03 13.39L89.03 13.39Q88.96 13.44 88.76 13.44L88.76 13.44L88.76 13.44Q88.34 13.44 87.98 13.41L87.98 13.41L87.98 13.41Q87.63 13.38 87.43 13.38L87.43 13.38L87.43 13.38Q87.04 13.38 86.58 13.42L86.58 13.42L86.58 13.42Q86.11 13.45 85.89 13.45L85.89 13.45L85.89 13.45Q85.26 13.45 85.26 13.24L85.26 13.24L85.26 13.24Q85.26 13.12 85.39 13.07L85.39 13.07L85.39 13.07Q85.53 13.02 85.69 13.00L85.69 13.00L85.69 13.00Q85.86 12.98 86.04 12.82L86.04 12.82L86.04 12.82Q86.23 12.66 86.30 12.35L86.30 12.35L86.30 12.35Q86.32 12.25 86.39 10.76L86.39 10.76L86.39 10.76Q86.45 9.27 86.45 8.61L86.45 8.61L86.45 7.81L86.45 7.81Q86.45 7.63 86.46 7.12L86.46 7.12L86.46 7.12Q86.46 6.61 86.46 6.30L86.46 6.30L86.46 5.66L86.46 5.66Q86.46 5.04 86.41 4.63L86.41 4.63L86.41 4.63Q86.37 4.30 86.04 4.12L86.04 4.12L86.04 4.12Q85.71 3.93 85.36 3.92L85.36 3.92L85.36 3.92Q85.06 3.91 85.06 3.71ZM96.66 3.77L96.66 3.77L96.66 3.77Q96.66 3.68 96.75 3.60L96.75 3.60L96.75 3.60Q96.85 3.53 97.01 3.53L97.01 3.53L97.01 3.53Q97.09 3.53 97.29 3.54L97.29 3.54L97.29 3.54Q97.48 3.54 97.54 3.54L97.54 3.54L97.54 3.54Q97.75 3.54 97.93 3.53L97.93 3.53L97.93 3.53Q98.11 3.51 98.22 3.51L98.22 3.51L98.22 3.51Q98.35 3.51 98.52 3.59L98.52 3.59L98.52 3.59Q98.69 3.67 98.71 3.75L98.71 3.75L98.71 3.75Q98.74 3.79 98.87 3.94L98.87 3.94L98.87 3.94Q98.99 4.09 99.20 4.33L99.20 4.33L99.20 4.33Q99.41 4.56 99.58 4.79L99.58 4.79L99.58 4.79Q101.49 7.27 104.68 10.77L104.68 10.77L104.68 10.77Q104.76 10.86 104.88 10.99L104.88 10.99L104.88 10.99Q105 11.12 105.05 11.18L105.05 11.18L105.05 11.18Q105.10 11.24 105.15 11.30L105.15 11.30L105.15 11.30Q105.21 11.35 105.25 11.38L105.25 11.38L105.25 11.38Q105.28 11.40 105.31 11.40L105.31 11.40L105.31 11.40Q105.45 11.40 105.45 10.53L105.45 10.53L105.45 8.89L105.45 8.89Q105.45 7.95 105.44 7.31L105.44 7.31L105.44 7.31Q105.43 6.66 105.43 6.38L105.43 6.38L105.43 6.38Q105.42 6.09 105.42 6.02L105.42 6.02L105.42 5.92L105.42 5.92Q105.42 5.45 105.36 5.11L105.36 5.11L105.36 5.11Q105.29 4.77 105.21 4.59L105.21 4.59L105.21 4.59Q105.13 4.41 104.97 4.28L104.97 4.28L104.97 4.28Q104.80 4.16 104.69 4.12L104.69 4.12L104.69 4.12Q104.58 4.09 104.37 4.05L104.37 4.05L104.37 4.05Q104.16 4.00 104.08 3.98L104.08 3.98L104.08 3.98Q103.80 3.89 103.80 3.74L103.80 3.74L103.80 3.74Q103.80 3.53 104.06 3.53L104.06 3.53L104.06 3.53Q104.15 3.53 104.73 3.54L104.73 3.54L104.73 3.54Q105.32 3.54 105.39 3.54L105.39 3.54L105.39 3.54Q105.73 3.54 106.14 3.53L106.14 3.53L106.14 3.53Q106.55 3.51 106.65 3.51L106.65 3.51L106.65 3.51Q106.89 3.51 106.98 3.56L106.98 3.56L106.98 3.56Q107.07 3.61 107.07 3.75L107.07 3.75L107.07 3.75Q107.07 3.81 107.00 3.86L107.00 3.86L107.00 3.86Q106.92 3.91 106.83 3.94L106.83 3.94L106.83 3.94Q106.75 3.98 106.67 4.00L106.67 4.00L106.58 4.03L106.58 4.03Q106.12 4.28 106.12 5.61L106.12 5.61L106.12 6.15L106.12 6.15Q106.12 7.21 106.04 9.83L106.04 9.83L106.04 9.83Q105.97 12.46 105.97 13.08L105.97 13.08L105.97 13.36L105.97 13.36Q105.97 13.68 105.77 13.68L105.77 13.68L105.77 13.68Q105.64 13.68 105.55 13.58L105.55 13.58L105.55 13.58Q100.90 8.19 100.00 7.17L100.00 7.17L100.00 7.17Q99.09 6.16 98.99 6.16L98.99 6.16L98.99 6.16Q98.85 6.16 98.85 7.11L98.85 7.11L98.85 7.11Q98.85 8.44 98.80 9.97L98.80 9.97L98.80 9.97Q98.74 11.51 98.74 11.65L98.74 11.65L98.74 11.65Q98.74 12.28 98.96 12.61L98.96 12.61L98.96 12.61Q99.18 12.94 99.43 12.98L99.43 12.98L99.43 12.98Q99.68 13.02 99.90 13.07L99.90 13.07L99.90 13.07Q100.11 13.12 100.11 13.26L100.11 13.26L100.11 13.26Q100.11 13.41 100.06 13.45L100.06 13.45L100.06 13.45Q100.02 13.50 99.89 13.50L99.89 13.50L99.89 13.50Q99.79 13.50 99.45 13.48L99.45 13.48L99.45 13.48Q99.11 13.47 98.39 13.47L98.39 13.47L98.39 13.47Q98.27 13.47 97.87 13.48L97.87 13.48L97.87 13.48Q97.48 13.50 97.20 13.50L97.20 13.50L97.20 13.50Q96.89 13.50 96.89 13.27L96.89 13.27L96.89 13.27Q96.89 13.15 97.08 13.11L97.08 13.11L97.08 13.11Q97.26 13.08 97.52 12.89L97.52 12.89L97.52 12.89Q97.79 12.71 97.93 12.21L97.93 12.21L97.93 12.21Q98.01 11.89 98.14 9.60L98.14 9.60L98.14 9.60Q98.27 7.32 98.27 6.45L98.27 6.45L98.27 6.45Q98.27 5.25 97.93 4.65L97.93 4.65L97.93 4.65Q97.59 4.06 96.84 3.98L96.84 3.98L96.84 3.98Q96.66 3.96 96.66 3.77ZM115.16 8.83L115.16 8.83L115.16 8.83Q115.16 7.31 115.77 6.09L115.77 6.09L115.77 6.09Q116.38 4.87 117.64 4.12L117.64 4.12L117.64 4.12Q118.90 3.37 120.64 3.37L120.64 3.37L120.64 3.37Q121.31 3.37 121.90 3.48L121.90 3.48L121.90 3.48Q122.49 3.58 122.86 3.72L122.86 3.72L122.86 3.72Q123.24 3.86 123.52 4.01L123.52 4.01L123.52 4.01Q123.80 4.16 123.95 4.26L123.95 4.26L123.95 4.26Q124.10 4.37 124.12 4.37L124.12 4.37L124.12 4.37Q124.17 4.37 124.31 4.26L124.31 4.26L124.31 4.26Q124.46 4.16 124.52 4.16L124.52 4.16L124.52 4.16Q124.73 4.16 124.73 4.44L124.73 4.44L124.73 4.44Q124.74 4.84 124.79 5.29L124.79 5.29L124.79 5.29Q124.84 5.74 124.88 6.03L124.88 6.03L124.88 6.03Q124.92 6.33 124.92 6.38L124.92 6.38L124.92 6.38Q124.92 6.62 124.75 6.62L124.75 6.62L124.75 6.62Q124.59 6.62 124.52 6.45L124.52 6.45L124.52 6.45Q124.03 5.39 122.88 4.65L122.88 4.65L122.88 4.65Q121.73 3.92 120.51 3.92L120.51 3.92L120.51 3.92Q118.76 3.92 117.62 5.02L117.62 5.02L117.62 5.02Q116.48 6.12 116.48 8.06L116.48 8.06L116.48 8.06Q116.48 9.35 116.96 10.49L116.96 10.49L116.96 10.49Q117.43 11.62 118.41 12.36L118.41 12.36L118.41 12.36Q119.38 13.10 120.64 13.10L120.64 13.10L120.64 13.10Q121.72 13.10 122.59 12.61L122.59 12.61L122.59 12.61Q123.47 12.12 123.56 11.49L123.56 11.49L123.56 11.49Q123.61 11.16 123.61 9.73L123.61 9.73L123.61 9.73Q123.61 9.18 123.37 8.95L123.37 8.95L123.37 8.95Q123.20 8.78 122.75 8.72L122.75 8.72L122.75 8.72Q122.33 8.68 122.26 8.55L122.26 8.55L122.26 8.55Q122.23 8.50 122.23 8.41L122.23 8.41L122.23 8.41Q122.23 8.26 122.49 8.26L122.49 8.26L122.49 8.26Q122.67 8.26 123.27 8.29L123.27 8.29L123.27 8.29Q123.87 8.33 124.04 8.33L124.04 8.33L124.04 8.33Q124.32 8.33 124.64 8.32L124.64 8.32L124.64 8.32Q124.96 8.32 125.16 8.32L125.16 8.32L125.37 8.32L125.37 8.32Q125.59 8.32 125.59 8.44L125.59 8.44L125.59 8.44Q125.59 8.54 125.24 8.69L125.24 8.69L125.24 8.69Q124.88 8.85 124.84 9.09L124.84 9.09L124.84 9.09Q124.74 9.69 124.74 10.65L124.74 10.65L124.74 10.65Q124.74 11.07 124.75 11.40L124.75 11.40L124.75 11.40Q124.77 11.72 124.78 11.85L124.78 11.85L124.78 11.85Q124.78 11.98 124.80 12.08L124.80 12.08L124.80 12.08Q124.81 12.18 124.81 12.22L124.81 12.22L124.81 12.22Q124.81 12.29 124.70 12.33L124.70 12.33L124.70 12.33Q124.60 12.36 124.36 12.42L124.36 12.42L124.36 12.42Q124.12 12.49 123.93 12.60L123.93 12.60L123.83 12.66L123.83 12.66Q123.73 12.73 123.63 12.78L123.63 12.78L123.63 12.78Q123.54 12.84 123.38 12.92L123.38 12.92L123.38 12.92Q123.21 13.01 123.05 13.09L123.05 13.09L123.05 13.09Q122.88 13.17 122.67 13.26L122.67 13.26L122.67 13.26Q122.46 13.36 122.23 13.43L122.23 13.43L122.23 13.43Q122.01 13.50 121.77 13.55L121.77 13.55L121.77 13.55Q121.53 13.61 121.28 13.64L121.28 13.64L121.28 13.64Q121.02 13.68 120.76 13.68L120.76 13.68L120.76 13.68Q119.24 13.68 118.11 13.26L118.11 13.26L118.11 13.26Q116.98 12.85 116.37 12.14L116.37 12.14L116.37 12.14Q115.75 11.44 115.46 10.61L115.46 10.61L115.46 10.61Q115.16 9.79 115.16 8.83ZM143.26 3.71L143.26 3.71L143.26 3.71Q143.26 3.46 143.64 3.46L143.64 3.46L143.64 3.46Q143.70 3.46 143.82 3.47L143.82 3.47L143.82 3.47Q143.95 3.49 144.02 3.49L144.02 3.49L144.02 3.49Q144.16 3.49 144.54 3.51L144.54 3.51L144.54 3.51Q144.93 3.54 145.24 3.54L145.24 3.54L145.24 3.54Q145.67 3.54 146.16 3.51L146.16 3.51L146.16 3.51Q146.65 3.49 146.71 3.49L146.71 3.49L146.71 3.49Q146.94 3.49 146.94 3.63L146.94 3.63L146.94 3.63Q146.94 3.82 146.78 3.88L146.78 3.88L146.78 3.88Q146.61 3.95 146.41 3.97L146.41 3.97L146.41 3.97Q146.20 3.99 146.01 4.28L146.01 4.28L146.01 4.28Q145.82 4.56 145.80 5.14L145.80 5.14L145.80 5.14Q145.77 5.68 145.73 8.19L145.73 8.19L145.73 8.19Q145.68 10.70 145.68 10.99L145.68 10.99L145.68 11.55L145.68 11.55Q145.68 12.56 146.02 12.66L146.02 12.66L146.02 12.66Q146.37 12.77 146.62 12.77L146.62 12.77L146.62 12.77Q147.67 12.77 148.46 12.67L148.46 12.67L148.46 12.67Q149.25 12.57 149.65 12.42L149.65 12.42L149.65 12.42Q150.05 12.28 150.32 12.10L150.32 12.10L150.32 12.10Q150.58 11.93 150.66 11.78L150.66 11.78L150.66 11.78Q150.74 11.63 150.81 11.54L150.81 11.54L150.81 11.54Q150.89 11.44 150.98 11.44L150.98 11.44L150.98 11.44Q151.14 11.44 151.14 11.68L151.14 11.68L151.14 11.68Q151.14 12.28 150.54 12.89L150.54 12.89L150.54 12.89Q149.94 13.51 149.49 13.51L149.49 13.51L149.49 13.51Q148.48 13.51 147.22 13.44L147.22 13.44L147.22 13.44Q145.95 13.37 145.64 13.37L145.64 13.37L145.64 13.37Q145.25 13.37 144.74 13.43L144.74 13.43L144.74 13.43Q144.23 13.48 143.89 13.48L143.89 13.48L143.89 13.48Q143.49 13.48 143.49 13.31L143.49 13.31L143.49 13.31Q143.49 13.22 143.56 13.15L143.56 13.15L143.56 13.15Q143.64 13.09 143.71 13.09L143.71 13.09L143.71 13.09Q143.92 13.09 144.12 12.95L144.12 12.95L144.12 12.95Q144.37 12.75 144.48 12.23L144.48 12.23L144.48 12.23Q144.59 11.70 144.59 10.21L144.59 10.21L144.59 8.47L144.59 8.47Q144.59 8.09 144.61 7.29L144.61 7.29L144.61 7.29Q144.63 6.50 144.63 6.05L144.63 6.05L144.63 6.05Q144.63 5.67 144.61 4.77L144.61 4.77L144.61 4.77Q144.59 4.37 144.26 4.14L144.26 4.14L144.26 4.14Q143.92 3.92 143.47 3.91L143.47 3.91L143.47 3.91Q143.33 3.91 143.30 3.86L143.30 3.86L143.30 3.86Q143.26 3.81 143.26 3.71ZM158.70 3.71L158.70 3.71L158.70 3.71Q158.70 3.50 159.10 3.50L159.10 3.50L159.10 3.50Q159.24 3.50 159.74 3.53L159.74 3.53L159.74 3.53Q160.24 3.56 160.68 3.56L160.68 3.56L160.68 3.56Q160.94 3.56 161.19 3.54L161.19 3.54L161.19 3.54Q161.43 3.53 161.91 3.53L161.91 3.53L161.91 3.53Q162.29 3.53 162.29 3.72L162.29 3.72L162.29 3.72Q162.29 3.84 161.64 4.10L161.64 4.10L161.64 4.10Q161.20 4.28 161.20 5.71L161.20 5.71L161.20 5.71Q161.20 7.60 161.18 9.05L161.18 9.05L161.18 9.05Q161.15 10.50 161.15 10.89L161.15 10.89L161.15 10.89Q161.15 12.07 161.50 12.59L161.50 12.59L161.50 12.59Q161.81 13.02 162.18 13.02L162.18 13.02L162.18 13.02Q162.20 13.02 162.32 13.03L162.32 13.03L162.32 13.03Q162.43 13.03 162.46 13.03L162.46 13.03L162.46 13.03Q162.55 13.03 162.65 13.08L162.65 13.08L162.65 13.08Q162.75 13.13 162.75 13.19L162.75 13.19L162.75 13.19Q162.75 13.34 162.67 13.39L162.67 13.39L162.67 13.39Q162.60 13.44 162.40 13.44L162.40 13.44L162.40 13.44Q161.98 13.44 161.62 13.41L161.62 13.41L161.62 13.41Q161.27 13.38 161.07 13.38L161.07 13.38L161.07 13.38Q160.68 13.38 160.22 13.42L160.22 13.42L160.22 13.42Q159.75 13.45 159.53 13.45L159.53 13.45L159.53 13.45Q158.90 13.45 158.90 13.24L158.90 13.24L158.90 13.24Q158.90 13.12 159.03 13.07L159.03 13.07L159.03 13.07Q159.17 13.02 159.33 13.00L159.33 13.00L159.33 13.00Q159.50 12.98 159.68 12.82L159.68 12.82L159.68 12.82Q159.87 12.66 159.94 12.35L159.94 12.35L159.94 12.35Q159.96 12.25 160.03 10.76L160.03 10.76L160.03 10.76Q160.09 9.27 160.09 8.61L160.09 8.61L160.09 7.81L160.09 7.81Q160.09 7.63 160.10 7.12L160.10 7.12L160.10 7.12Q160.10 6.61 160.10 6.30L160.10 6.30L160.10 5.66L160.10 5.66Q160.10 5.04 160.05 4.63L160.05 4.63L160.05 4.63Q160.01 4.30 159.68 4.12L159.68 4.12L159.68 4.12Q159.35 3.93 159.00 3.92L159.00 3.92L159.00 3.92Q158.70 3.91 158.70 3.71ZM170.30 3.68L170.30 3.68L170.30 3.68Q170.30 3.64 170.32 3.60L170.32 3.60L170.32 3.60Q170.34 3.56 170.43 3.50L170.43 3.50L170.43 3.50Q170.52 3.44 170.66 3.44L170.66 3.44L171.04 3.44L171.04 3.44Q171.37 3.44 172.12 3.49L172.12 3.49L172.12 3.49Q172.87 3.53 174.08 3.53L174.08 3.53L174.08 3.53Q175.07 3.53 175.84 3.49L175.84 3.49L175.84 3.49Q176.61 3.46 177.25 3.46L177.25 3.46L177.25 3.46Q177.49 3.46 177.49 3.79L177.49 3.79L177.49 3.79Q177.49 3.92 177.46 4.11L177.46 4.11L177.46 4.11Q177.44 4.30 177.38 4.61L177.38 4.61L177.38 4.61Q177.32 4.93 177.30 5.22L177.30 5.22L177.30 5.22Q177.27 5.50 177.09 5.50L177.09 5.50L177.09 5.50Q176.89 5.50 176.89 5.22L176.89 5.22L176.89 5.22Q176.89 4.30 176.25 4.26L176.25 4.26L176.25 4.26Q174.13 4.09 173.73 4.09L173.73 4.09L173.73 4.09Q173.10 4.09 172.95 4.24L172.95 4.24L172.95 4.24Q172.80 4.40 172.79 4.87L172.79 4.87L172.79 4.87Q172.79 4.94 172.79 4.98L172.79 4.98L172.79 4.98Q172.75 5.74 172.75 7.32L172.75 7.32L172.75 7.32Q172.75 8.01 173.00 8.02L173.00 8.02L173.00 8.02Q173.07 8.02 173.19 8.03L173.19 8.03L173.19 8.03Q173.31 8.04 173.35 8.04L173.35 8.04L173.35 8.04Q173.45 8.04 173.64 8.03L173.64 8.03L173.64 8.03Q173.84 8.02 173.95 8.02L173.95 8.02L174.38 8.02L174.38 8.02Q175.22 8.02 175.50 7.97L175.50 7.97L175.50 7.97Q175.77 7.92 175.99 7.77L175.99 7.77L175.99 7.77Q176.12 7.69 176.19 7.57L176.19 7.57L176.19 7.57Q176.26 7.46 176.29 7.31L176.29 7.31L176.29 7.31Q176.32 7.15 176.36 7.08L176.36 7.08L176.36 7.08Q176.40 7.01 176.53 7.01L176.53 7.01L176.53 7.01Q176.65 7.01 176.68 7.06L176.68 7.06L176.68 7.06Q176.71 7.10 176.71 7.24L176.71 7.24L176.71 7.24Q176.71 7.34 176.65 7.73L176.65 7.73L176.65 7.73Q176.58 8.12 176.58 8.40L176.58 8.40L176.58 8.40Q176.58 8.67 176.63 9.05L176.63 9.05L176.63 9.05Q176.68 9.44 176.68 9.55L176.68 9.55L176.68 9.55Q176.68 9.77 176.63 9.83L176.63 9.83L176.63 9.83Q176.58 9.90 176.48 9.90L176.48 9.90L176.48 9.90Q176.25 9.90 176.19 9.55L176.19 9.55L176.19 9.55Q176.19 9.52 176.18 9.42L176.18 9.42L176.18 9.42Q176.16 9.32 176.16 9.28L176.16 9.28L176.16 9.28Q176.15 9.24 176.12 9.16L176.12 9.16L176.12 9.16Q176.09 9.09 176.06 9.04L176.06 9.04L176.06 9.04Q176.04 9.00 175.99 8.95L175.99 8.95L175.99 8.95Q175.95 8.90 175.88 8.88L175.88 8.88L175.88 8.88Q175.69 8.79 175.18 8.74L175.18 8.74L175.18 8.74Q174.68 8.68 174.52 8.68L174.52 8.68L173.31 8.68L173.31 8.68Q172.73 8.68 172.73 8.95L172.73 8.95L172.73 8.95Q172.73 9.35 172.72 9.96L172.72 9.96L172.72 9.96Q172.70 10.57 172.70 10.96L172.70 10.96L172.70 10.96Q172.70 11.06 172.70 11.25L172.70 11.25L172.70 11.25Q172.69 11.44 172.69 11.52L172.69 11.52L172.69 11.52Q172.69 11.80 172.75 12.08L172.75 12.08L172.75 12.08Q172.80 12.36 173.08 12.67L173.08 12.67L173.08 12.67Q173.35 12.98 173.81 12.98L173.81 12.98L173.81 12.98Q174.23 12.98 174.23 13.23L174.23 13.23L174.23 13.23Q174.23 13.27 174.20 13.33L174.20 13.33L174.20 13.33Q174.17 13.38 174.07 13.44L174.07 13.44L174.07 13.44Q173.96 13.50 173.80 13.50L173.80 13.50L173.80 13.50Q173.57 13.50 173.09 13.44L173.09 13.44L173.09 13.44Q172.61 13.38 172.44 13.38L172.44 13.38L172.44 13.38Q172.05 13.38 171.56 13.43L171.56 13.43L171.56 13.43Q171.08 13.47 170.74 13.47L170.74 13.47L170.74 13.47Q170.46 13.47 170.46 13.31L170.46 13.31L170.46 13.31Q170.46 13.13 170.53 13.09L170.53 13.09L170.53 13.09Q170.59 13.05 171.07 12.88L171.07 12.88L171.07 12.88Q171.43 12.75 171.51 12.13L171.51 12.13L171.51 12.13Q171.60 11.51 171.61 9.60L171.61 9.60L171.61 9.60Q171.61 8.86 171.61 8.44L171.61 8.44L171.61 8.44Q171.61 8.06 171.63 7.26L171.63 7.26L171.63 7.26Q171.65 6.45 171.65 6.01L171.65 6.01L171.65 5.19L171.65 5.19Q171.65 4.27 171.00 3.96L171.00 3.96L171.00 3.96Q170.90 3.92 170.76 3.90L170.76 3.90L170.76 3.90Q170.62 3.88 170.53 3.88L170.53 3.88L170.53 3.88Q170.44 3.88 170.37 3.83L170.37 3.83L170.37 3.83Q170.30 3.78 170.30 3.68ZM185.05 3.65L185.05 3.65L185.05 3.65Q185.05 3.46 185.44 3.46L185.44 3.46L185.44 3.46Q185.50 3.46 185.63 3.47L185.63 3.47L185.63 3.47Q185.75 3.49 185.82 3.49L185.82 3.49L185.82 3.49Q185.86 3.49 187.14 3.52L187.14 3.52L187.14 3.52Q188.41 3.56 189.24 3.56L189.24 3.56L189.24 3.56Q189.53 3.56 190.69 3.53L190.69 3.53L190.69 3.53Q191.84 3.50 192.04 3.50L192.04 3.50L192.04 3.50Q192.30 3.50 192.30 3.82L192.30 3.82L192.30 3.82Q192.30 3.91 192.22 4.38L192.22 4.38L192.22 4.38Q192.14 4.84 192.14 5.25L192.14 5.25L192.14 5.25Q192.14 5.38 192.07 5.47L192.07 5.47L192.07 5.47Q192.00 5.56 191.91 5.56L191.91 5.56L191.91 5.56Q191.70 5.56 191.70 5.26L191.70 5.26L191.70 5.26Q191.70 4.89 191.46 4.58L191.46 4.58L191.46 4.58Q191.23 4.27 190.88 4.26L190.88 4.26L190.88 4.26Q189.62 4.16 188.94 4.16L188.94 4.16L188.58 4.16L188.58 4.16Q187.85 4.16 187.73 4.26L187.73 4.26L187.73 4.26Q187.61 4.37 187.59 5.01L187.59 5.01L187.59 5.01Q187.53 6.02 187.53 7.35L187.53 7.35L187.53 7.35Q187.53 8.05 187.80 8.06L187.80 8.06L188.15 8.06L188.73 8.06L189.17 8.06L189.17 8.06Q190.01 8.06 190.29 8.01L190.29 8.01L190.29 8.01Q190.57 7.95 190.79 7.80L190.79 7.80L190.79 7.80Q191.06 7.62 191.11 7.28L191.11 7.28L191.11 7.28Q191.16 7.04 191.31 7.04L191.31 7.04L191.31 7.04Q191.44 7.04 191.46 7.08L191.46 7.08L191.46 7.08Q191.49 7.13 191.49 7.27L191.49 7.27L191.49 7.27Q191.49 7.36 191.44 7.91L191.44 7.91L191.44 7.91Q191.38 8.46 191.38 8.74L191.38 8.74L191.38 8.74Q191.38 9.00 191.40 9.24L191.40 9.24L191.40 9.24Q191.42 9.48 191.42 9.59L191.42 9.59L191.42 9.59Q191.42 9.94 191.32 9.94L191.32 9.94L191.32 9.94Q191.11 9.94 191.02 9.60L191.02 9.60L191.02 9.60Q190.82 9.02 190.67 8.92L190.67 8.92L190.67 8.92Q190.37 8.72 189.32 8.72L189.32 8.72L189.32 8.72Q188.90 8.72 188.64 8.72L188.64 8.72L188.64 8.72Q188.38 8.72 188.31 8.71L188.31 8.71L188.31 8.71Q188.23 8.71 188.18 8.71L188.18 8.71L188.18 8.71Q188.13 8.71 188.09 8.71L188.09 8.71L188.09 8.71Q187.52 8.71 187.52 8.97L187.52 8.97L187.52 8.97Q187.52 9.38 187.50 9.99L187.50 9.99L187.50 9.99Q187.49 10.60 187.49 10.99L187.49 10.99L187.49 11.55L187.49 11.55Q187.49 12.56 187.82 12.66L187.82 12.66L187.82 12.66Q188.17 12.77 188.43 12.77L188.43 12.77L188.43 12.77Q189.48 12.77 190.27 12.67L190.27 12.67L190.27 12.67Q191.06 12.57 191.46 12.42L191.46 12.42L191.46 12.42Q191.86 12.28 192.12 12.10L192.12 12.10L192.12 12.10Q192.39 11.93 192.47 11.78L192.47 11.78L192.47 11.78Q192.54 11.63 192.62 11.54L192.62 11.54L192.62 11.54Q192.70 11.44 192.78 11.44L192.78 11.44L192.78 11.44Q192.95 11.44 192.95 11.68L192.95 11.68L192.95 11.68Q192.95 12.28 192.35 12.89L192.35 12.89L192.35 12.89Q191.74 13.51 191.30 13.51L191.30 13.51L191.30 13.51Q190.29 13.51 189.02 13.44L189.02 13.44L189.02 13.44Q187.75 13.37 187.45 13.37L187.45 13.37L187.45 13.37Q187.05 13.37 186.47 13.43L186.47 13.43L186.47 13.43Q185.88 13.50 185.54 13.50L185.54 13.50L185.54 13.50Q185.25 13.50 185.25 13.36L185.25 13.36L185.25 13.36Q185.25 13.23 185.25 13.19L185.25 13.19L185.25 13.19Q185.25 13.15 185.29 13.12L185.29 13.12L185.29 13.12Q185.33 13.09 185.38 13.08L185.38 13.08L185.38 13.08Q185.43 13.08 185.56 13.03L185.56 13.03L185.56 13.03Q185.70 12.99 185.85 12.92L185.85 12.92L185.85 12.92Q186.19 12.75 186.29 12.26L186.29 12.26L186.29 12.26Q186.40 11.77 186.40 10.21L186.40 10.21L186.40 8.47L186.40 8.47Q186.40 8.09 186.42 7.29L186.42 7.29L186.42 7.29Q186.44 6.50 186.44 6.05L186.44 6.05L186.44 6.05Q186.44 5.67 186.41 4.77L186.41 4.77L186.41 4.77Q186.40 4.37 186.06 4.14L186.06 4.14L186.06 4.14Q185.72 3.92 185.28 3.91L185.28 3.91L185.28 3.91Q185.05 3.91 185.05 3.65ZM211.04 10.82L211.04 10.82L211.04 10.82Q211.04 10.53 211.23 10.53L211.23 10.53L211.23 10.53Q211.41 10.53 211.46 10.67L211.46 10.67L211.46 10.67Q211.60 11.00 211.72 11.25L211.72 11.25L211.72 11.25Q211.83 11.49 212.10 11.85L212.10 11.85L212.10 11.85Q212.37 12.21 212.67 12.44L212.67 12.44L212.67 12.44Q212.98 12.67 213.47 12.84L213.47 12.84L213.47 12.84Q213.95 13.01 214.52 13.01L214.52 13.01L214.52 13.01Q215.57 13.01 216.21 12.45L216.21 12.45L216.21 12.45Q216.85 11.90 216.85 11.00L216.85 11.00L216.85 11.00Q216.85 10.35 216.41 9.90L216.41 9.90L216.41 9.90Q215.98 9.46 215.42 9.27L215.42 9.27L215.42 9.27Q214.86 9.09 214.00 8.77L214.00 8.77L214.00 8.77Q213.14 8.46 212.59 8.13L212.59 8.13L212.59 8.13Q211.32 7.38 211.32 6.08L211.32 6.08L211.32 6.08Q211.32 4.83 212.22 4.08L212.22 4.08L212.22 4.08Q213.12 3.33 214.56 3.33L214.56 3.33L214.56 3.33Q215.10 3.33 215.83 3.56L215.83 3.56L215.83 3.56Q216.57 3.79 216.58 3.79L216.58 3.79L216.58 3.79Q216.62 3.79 216.73 3.74L216.73 3.74L216.73 3.74Q216.85 3.68 216.90 3.68L216.90 3.68L216.90 3.68Q217.08 3.68 217.11 3.79L217.11 3.79L217.11 3.79Q217.41 5.49 217.41 5.70L217.41 5.70L217.41 5.70Q217.41 6.09 217.21 6.09L217.21 6.09L217.21 6.09Q217.08 6.09 217.01 5.89L217.01 5.89L217.01 5.89Q216.85 5.49 216.69 5.24L216.69 5.24L216.69 5.24Q216.52 4.98 216.45 4.91L216.45 4.91L216.45 4.91Q216.38 4.84 216.09 4.58L216.09 4.58L216.09 4.58Q215.33 3.91 214.26 3.91L214.26 3.91L214.26 3.91Q213.39 3.91 212.80 4.33L212.80 4.33L212.80 4.33Q212.21 4.75 212.21 5.46L212.21 5.46L212.21 5.46Q212.21 6.09 212.56 6.50L212.56 6.50L212.56 6.50Q212.90 6.90 213.47 7.13L213.47 7.13L213.47 7.13Q214.05 7.35 214.68 7.55L214.68 7.55L214.68 7.55Q215.31 7.74 216.01 8.09L216.01 8.09L216.01 8.09Q216.72 8.44 217.18 8.93L217.18 8.93L217.18 8.93Q217.74 9.53 217.74 10.43L217.74 10.43L217.74 10.43Q217.74 11.90 216.80 12.76L216.80 12.76L216.80 12.76Q215.87 13.62 214.48 13.62L214.48 13.62L214.48 13.62Q213.51 13.62 212.93 13.52L212.93 13.52L212.93 13.52Q212.34 13.41 211.72 13.09L211.72 13.09L211.72 13.09Q211.54 12.98 211.29 12.00L211.29 12.00L211.29 12.00Q211.04 11.02 211.04 10.82ZM225.83 5.32L225.83 5.32L225.83 5.32Q225.83 4.76 225.97 3.88L225.97 3.88L225.97 3.88Q225.97 3.85 225.98 3.78L225.98 3.78L225.98 3.78Q225.99 3.71 226.00 3.69L226.00 3.69L226.00 3.69Q226.00 3.67 226.01 3.62L226.01 3.62L226.01 3.62Q226.02 3.57 226.03 3.55L226.03 3.55L226.03 3.55Q226.04 3.53 226.06 3.49L226.06 3.49L226.06 3.49Q226.09 3.46 226.11 3.44L226.11 3.44L226.11 3.44Q226.14 3.43 226.18 3.42L226.18 3.42L226.18 3.42Q226.23 3.40 226.28 3.39L226.28 3.39L226.28 3.39Q226.34 3.39 226.41 3.39L226.41 3.39L226.41 3.39Q226.63 3.39 227.59 3.44L227.59 3.44L227.59 3.44Q228.55 3.50 230.36 3.50L230.36 3.50L230.36 3.50Q233.44 3.50 234.67 3.43L234.67 3.43L234.67 3.43Q234.68 3.43 234.72 3.42L234.72 3.42L234.72 3.42Q234.75 3.42 234.77 3.42L234.77 3.42L234.77 3.42Q234.92 3.42 234.98 3.50L234.98 3.50L234.98 3.50Q235.03 3.58 235.03 3.65L235.03 3.65L235.03 3.65Q235.03 3.75 235.07 4.24L235.07 4.24L235.07 4.24Q235.12 4.73 235.12 4.79L235.12 4.79L235.12 4.79Q235.12 5.14 235.07 5.23L235.07 5.23L235.07 5.23Q235.03 5.32 234.89 5.32L234.89 5.32L234.89 5.32Q234.78 5.32 234.74 5.15L234.74 5.15L234.74 5.15Q234.63 4.75 234.54 4.60L234.54 4.60L234.54 4.60Q234.46 4.45 234.18 4.34L234.18 4.34L234.18 4.34Q233.90 4.23 233.32 4.23L233.32 4.23L231.50 4.23L231.50 4.23Q231.17 4.23 231.09 4.36L231.09 4.36L231.09 4.36Q231.01 4.49 231.01 5.12L231.01 5.12L231.01 5.81L231.01 5.81Q231.01 7.69 230.99 9.11L230.99 9.11L230.99 9.11Q230.97 10.54 230.97 10.93L230.97 10.93L230.97 10.93Q230.97 11.13 230.97 11.43L230.97 11.43L230.97 11.43Q230.96 11.73 230.96 11.84L230.96 11.84L230.96 11.84Q230.96 12.45 231.15 12.64L231.15 12.64L231.15 12.64Q231.34 12.81 231.56 12.90L231.56 12.90L231.56 12.90Q231.78 12.99 231.94 13.01L231.94 13.01L231.94 13.01Q232.11 13.02 232.22 13.08L232.22 13.08L232.22 13.08Q232.33 13.13 232.33 13.26L232.33 13.26L232.33 13.26Q232.33 13.41 232.26 13.45L232.26 13.45L232.26 13.45Q232.19 13.50 231.99 13.50L231.99 13.50L231.99 13.50Q231.83 13.50 231.25 13.44L231.25 13.44L231.25 13.44Q230.68 13.38 230.44 13.38L230.44 13.38L230.44 13.38Q230.27 13.38 229.76 13.43L229.76 13.43L229.76 13.43Q229.25 13.48 229.01 13.48L229.01 13.48L229.01 13.48Q228.49 13.48 228.49 13.26L228.49 13.26L228.49 13.26Q228.49 13.12 228.58 13.07L228.58 13.07L228.58 13.07Q228.66 13.02 228.91 12.98L228.91 12.98L228.91 12.98Q229.15 12.95 229.22 12.94L229.22 12.94L229.22 12.94Q229.70 12.82 229.75 12.38L229.75 12.38L229.75 12.38Q229.89 11.14 229.89 7.08L229.89 7.08L229.88 4.58L229.88 4.58Q229.88 4.31 229.73 4.25L229.73 4.25L229.73 4.25Q229.57 4.19 228.82 4.19L228.82 4.19L228.82 4.19Q227.84 4.19 227.34 4.24L227.34 4.24L227.34 4.24Q226.84 4.30 226.76 4.35L226.76 4.35L226.76 4.35Q226.67 4.40 226.56 4.54L226.56 4.54L226.56 4.54Q226.44 4.70 226.36 4.91L226.36 4.91L226.36 4.91Q226.28 5.11 226.26 5.24L226.26 5.24L226.26 5.24Q226.24 5.38 226.18 5.47L226.18 5.47L226.18 5.47Q226.11 5.56 225.99 5.56L225.99 5.56L225.99 5.56Q225.83 5.56 225.83 5.32ZM242.68 3.81L242.68 3.81L242.68 3.81Q242.68 3.65 242.84 3.61L242.84 3.61L242.84 3.61Q243.00 3.57 243.54 3.57L243.54 3.57L243.54 3.57Q243.63 3.57 243.93 3.58L243.93 3.58L243.93 3.58Q244.23 3.60 244.36 3.60L244.36 3.60L244.36 3.60Q244.51 3.60 244.92 3.59L244.92 3.59L244.92 3.59Q245.34 3.58 245.55 3.58L245.55 3.58L245.55 3.58Q246.25 3.58 246.25 3.75L246.25 3.75L246.25 3.75Q246.25 3.91 245.95 4.01L245.95 4.01L245.95 4.01Q245.66 4.12 245.66 4.24L245.66 4.24L245.66 4.24Q245.66 4.38 245.75 4.61L245.75 4.61L245.75 4.61Q245.84 4.83 245.93 4.97L245.93 4.97L245.93 4.97Q246.02 5.11 246.20 5.38L246.20 5.38L246.20 5.38Q246.39 5.64 246.41 5.70L246.41 5.70L246.41 5.70Q246.89 6.45 247.40 7.14L247.40 7.14L247.40 7.14Q247.91 7.83 247.98 7.83L247.98 7.83L247.98 7.83Q248.07 7.83 248.19 7.66L248.19 7.66L248.19 7.66Q248.32 7.50 248.54 7.13L248.54 7.13L248.54 7.13Q248.77 6.75 248.92 6.52L248.92 6.52L248.92 6.52Q248.96 6.45 249.12 6.22L249.12 6.22L249.12 6.22Q249.28 5.98 249.35 5.88L249.35 5.88L249.35 5.88Q249.41 5.78 249.54 5.58L249.54 5.58L249.54 5.58Q249.66 5.38 249.72 5.27L249.72 5.27L249.72 5.27Q249.77 5.17 249.85 5.02L249.85 5.02L249.85 5.02Q249.93 4.87 249.96 4.77L249.96 4.77L249.96 4.77Q249.98 4.68 249.98 4.59L249.98 4.59L249.98 4.59Q249.98 4.14 249.51 4.03L249.51 4.03L249.51 4.03Q249.45 4.02 249.35 4.00L249.35 4.00L249.35 4.00Q249.24 3.99 249.19 3.98L249.19 3.98L249.19 3.98Q249.14 3.96 249.07 3.93L249.07 3.93L249.07 3.93Q249.00 3.91 248.98 3.86L248.98 3.86L248.98 3.86Q248.95 3.81 248.95 3.74L248.95 3.74L248.95 3.74Q248.95 3.57 249.34 3.57L249.34 3.57L249.34 3.57Q249.41 3.57 249.60 3.58L249.60 3.58L249.60 3.58Q249.79 3.58 249.91 3.58L249.91 3.58L249.91 3.58Q250.24 3.58 250.69 3.59L250.69 3.59L250.69 3.59Q251.15 3.60 251.40 3.60L251.40 3.60L251.40 3.60Q252.08 3.60 252.08 3.81L252.08 3.81L252.08 3.81Q252.08 3.86 252.00 3.91L252.00 3.91L252.00 3.91Q251.92 3.95 251.76 4.02L251.76 4.02L251.76 4.02Q251.61 4.09 251.48 4.19L251.48 4.19L251.48 4.19Q250.91 4.63 249.80 6.31L249.80 6.31L249.80 6.31Q248.68 7.99 248.53 8.19L248.53 8.19L248.53 8.19Q248.30 8.47 248.25 8.81L248.25 8.81L248.25 8.81Q248.19 9.14 248.19 9.95L248.19 9.95L248.19 9.95Q248.19 10.14 248.20 10.73L248.20 10.73L248.20 10.73Q248.21 11.33 248.21 11.58L248.21 11.58L248.21 11.91L248.21 11.91Q248.21 12.38 248.37 12.64L248.37 12.64L248.37 12.64Q248.53 12.91 248.67 12.96L248.67 12.96L248.67 12.96Q248.81 13.01 248.95 13.01L248.95 13.01L248.95 13.01Q248.98 13.01 249.09 13.01L249.09 13.01L249.09 13.01Q249.20 13.02 249.23 13.02L249.23 13.02L249.23 13.02Q249.33 13.02 249.38 13.08L249.38 13.08L249.38 13.08Q249.44 13.15 249.44 13.22L249.44 13.22L249.44 13.22Q249.44 13.36 249.37 13.40L249.37 13.40L249.37 13.40Q249.30 13.44 249.10 13.44L249.10 13.44L249.10 13.44Q249.03 13.44 248.49 13.43L248.49 13.43L248.49 13.43Q247.95 13.43 247.70 13.43L247.70 13.43L247.70 13.43Q247.21 13.43 246.81 13.45L246.81 13.45L246.81 13.45Q246.40 13.48 246.16 13.48L246.16 13.48L246.16 13.48Q245.77 13.48 245.77 13.33L245.77 13.33L245.77 13.33Q245.77 13.20 245.85 13.15L245.85 13.15L245.85 13.15Q245.92 13.10 246.11 13.09L246.11 13.09L246.11 13.09Q246.29 13.08 246.37 13.05L246.37 13.05L246.37 13.05Q246.96 12.87 246.96 12.19L246.96 12.19L246.96 12.19Q246.96 12.11 246.97 11.92L246.97 11.92L246.97 11.92Q246.97 11.73 246.98 11.12L246.98 11.12L246.98 11.12Q246.99 10.50 246.99 9.35L246.99 9.35L246.99 9.35Q246.99 9.13 246.95 8.97L246.95 8.97L246.95 8.97Q246.92 8.81 246.87 8.65L246.87 8.65L246.87 8.65Q246.82 8.50 246.63 8.20L246.63 8.20L246.63 8.20Q246.44 7.91 246.26 7.64L246.26 7.64L246.26 7.64Q246.08 7.36 245.64 6.72L245.64 6.72L245.64 6.72Q245.20 6.08 244.79 5.46L244.79 5.46L244.79 5.46Q244.36 4.80 244.01 4.46L244.01 4.46L244.01 4.46Q243.66 4.12 243.47 4.05L243.47 4.05L243.47 4.05Q243.28 3.99 243.03 3.99L243.03 3.99L243.03 3.99Q242.68 3.99 242.68 3.81ZM259.64 3.71L259.64 3.71L259.64 3.71Q259.64 3.46 260.02 3.46L260.02 3.46L260.02 3.46Q260.08 3.46 260.20 3.47L260.20 3.47L260.20 3.47Q260.33 3.49 260.40 3.49L260.40 3.49L260.40 3.49Q260.54 3.49 260.93 3.51L260.93 3.51L260.93 3.51Q261.31 3.54 261.62 3.54L261.62 3.54L261.62 3.54Q262.05 3.54 262.54 3.51L262.54 3.51L262.54 3.51Q263.03 3.49 263.09 3.49L263.09 3.49L263.09 3.49Q263.33 3.49 263.33 3.63L263.33 3.63L263.33 3.63Q263.33 3.82 263.16 3.88L263.16 3.88L263.16 3.88Q262.99 3.95 262.79 3.97L262.79 3.97L262.79 3.97Q262.58 3.99 262.40 4.28L262.40 4.28L262.40 4.28Q262.21 4.56 262.18 5.14L262.18 5.14L262.18 5.14Q262.15 5.68 262.11 8.19L262.11 8.19L262.11 8.19Q262.07 10.70 262.07 10.99L262.07 10.99L262.07 11.55L262.07 11.55Q262.07 12.56 262.40 12.66L262.40 12.66L262.40 12.66Q262.75 12.77 263.00 12.77L263.00 12.77L263.00 12.77Q264.05 12.77 264.85 12.67L264.85 12.67L264.85 12.67Q265.64 12.57 266.04 12.42L266.04 12.42L266.04 12.42Q266.43 12.28 266.70 12.10L266.70 12.10L266.70 12.10Q266.97 11.93 267.04 11.78L267.04 11.78L267.04 11.78Q267.12 11.63 267.20 11.54L267.20 11.54L267.20 11.54Q267.27 11.44 267.36 11.44L267.36 11.44L267.36 11.44Q267.53 11.44 267.53 11.68L267.53 11.68L267.53 11.68Q267.53 12.28 266.92 12.89L266.92 12.89L266.92 12.89Q266.32 13.51 265.87 13.51L265.87 13.51L265.87 13.51Q264.87 13.51 263.60 13.44L263.60 13.44L263.60 13.44Q262.33 13.37 262.02 13.37L262.02 13.37L262.02 13.37Q261.63 13.37 261.12 13.43L261.12 13.43L261.12 13.43Q260.61 13.48 260.27 13.48L260.27 13.48L260.27 13.48Q259.87 13.48 259.87 13.31L259.87 13.31L259.87 13.31Q259.87 13.22 259.95 13.15L259.95 13.15L259.95 13.15Q260.02 13.09 260.09 13.09L260.09 13.09L260.09 13.09Q260.30 13.09 260.50 12.95L260.50 12.95L260.50 12.95Q260.75 12.75 260.86 12.23L260.86 12.23L260.86 12.23Q260.97 11.70 260.97 10.21L260.97 10.21L260.97 8.47L260.97 8.47Q260.97 8.09 261.00 7.29L261.00 7.29L261.00 7.29Q261.02 6.50 261.02 6.05L261.02 6.05L261.02 6.05Q261.02 5.67 260.99 4.77L260.99 4.77L260.99 4.77Q260.97 4.37 260.64 4.14L260.64 4.14L260.64 4.14Q260.30 3.92 259.85 3.91L259.85 3.91L259.85 3.91Q259.71 3.91 259.68 3.86L259.68 3.86L259.68 3.86Q259.64 3.81 259.64 3.71ZM275.09 3.65L275.09 3.65L275.09 3.65Q275.09 3.46 275.48 3.46L275.48 3.46L275.48 3.46Q275.53 3.46 275.66 3.47L275.66 3.47L275.66 3.47Q275.79 3.49 275.86 3.49L275.86 3.49L275.86 3.49Q275.90 3.49 277.17 3.52L277.17 3.52L277.17 3.52Q278.45 3.56 279.27 3.56L279.27 3.56L279.27 3.56Q279.57 3.56 280.72 3.53L280.72 3.53L280.72 3.53Q281.88 3.50 282.07 3.50L282.07 3.50L282.07 3.50Q282.34 3.50 282.34 3.82L282.34 3.82L282.34 3.82Q282.34 3.91 282.25 4.38L282.25 4.38L282.25 4.38Q282.17 4.84 282.17 5.25L282.17 5.25L282.17 5.25Q282.17 5.38 282.10 5.47L282.10 5.47L282.10 5.47Q282.03 5.56 281.95 5.56L281.95 5.56L281.95 5.56Q281.74 5.56 281.74 5.26L281.74 5.26L281.74 5.26Q281.74 4.89 281.50 4.58L281.50 4.58L281.50 4.58Q281.26 4.27 280.91 4.26L280.91 4.26L280.91 4.26Q279.65 4.16 278.98 4.16L278.98 4.16L278.61 4.16L278.61 4.16Q277.89 4.16 277.77 4.26L277.77 4.26L277.77 4.26Q277.65 4.37 277.62 5.01L277.62 5.01L277.62 5.01Q277.56 6.02 277.56 7.35L277.56 7.35L277.56 7.35Q277.56 8.05 277.83 8.06L277.83 8.06L278.18 8.06L278.77 8.06L279.20 8.06L279.20 8.06Q280.04 8.06 280.32 8.01L280.32 8.01L280.32 8.01Q280.60 7.95 280.83 7.80L280.83 7.80L280.83 7.80Q281.09 7.62 281.15 7.28L281.15 7.28L281.15 7.28Q281.19 7.04 281.34 7.04L281.34 7.04L281.34 7.04Q281.47 7.04 281.50 7.08L281.50 7.08L281.50 7.08Q281.53 7.13 281.53 7.27L281.53 7.27L281.53 7.27Q281.53 7.36 281.47 7.91L281.47 7.91L281.47 7.91Q281.41 8.46 281.41 8.74L281.41 8.74L281.41 8.74Q281.41 9.00 281.44 9.24L281.44 9.24L281.44 9.24Q281.46 9.48 281.46 9.59L281.46 9.59L281.46 9.59Q281.46 9.94 281.36 9.94L281.36 9.94L281.36 9.94Q281.15 9.94 281.05 9.60L281.05 9.60L281.05 9.60Q280.85 9.02 280.70 8.92L280.70 8.92L280.70 8.92Q280.41 8.72 279.36 8.72L279.36 8.72L279.36 8.72Q278.94 8.72 278.68 8.72L278.68 8.72L278.68 8.72Q278.42 8.72 278.34 8.71L278.34 8.71L278.34 8.71Q278.26 8.71 278.22 8.71L278.22 8.71L278.22 8.71Q278.17 8.71 278.12 8.71L278.12 8.71L278.12 8.71Q277.55 8.71 277.55 8.97L277.55 8.97L277.55 8.97Q277.55 9.38 277.54 9.99L277.54 9.99L277.54 9.99Q277.52 10.60 277.52 10.99L277.52 10.99L277.52 11.55L277.52 11.55Q277.52 12.56 277.86 12.66L277.86 12.66L277.86 12.66Q278.21 12.77 278.46 12.77L278.46 12.77L278.46 12.77Q279.51 12.77 280.30 12.67L280.30 12.67L280.30 12.67Q281.09 12.57 281.49 12.42L281.49 12.42L281.49 12.42Q281.89 12.28 282.16 12.10L282.16 12.10L282.16 12.10Q282.42 11.93 282.50 11.78L282.50 11.78L282.50 11.78Q282.58 11.63 282.65 11.54L282.65 11.54L282.65 11.54Q282.73 11.44 282.81 11.44L282.81 11.44L282.81 11.44Q282.98 11.44 282.98 11.68L282.98 11.68L282.98 11.68Q282.98 12.28 282.38 12.89L282.38 12.89L282.38 12.89Q281.78 13.51 281.33 13.51L281.33 13.51L281.33 13.51Q280.32 13.51 279.06 13.44L279.06 13.44L279.06 13.44Q277.79 13.37 277.48 13.37L277.48 13.37L277.48 13.37Q277.09 13.37 276.50 13.43L276.50 13.43L276.50 13.43Q275.91 13.50 275.58 13.50L275.58 13.50L275.58 13.50Q275.28 13.50 275.28 13.36L275.28 13.36L275.28 13.36Q275.28 13.23 275.28 13.19L275.28 13.19L275.28 13.19Q275.28 13.15 275.32 13.12L275.32 13.12L275.32 13.12Q275.37 13.09 275.42 13.08L275.42 13.08L275.42 13.08Q275.46 13.08 275.60 13.03L275.60 13.03L275.60 13.03Q275.73 12.99 275.88 12.92L275.88 12.92L275.88 12.92Q276.22 12.75 276.33 12.26L276.33 12.26L276.33 12.26Q276.43 11.77 276.43 10.21L276.43 10.21L276.43 8.47L276.43 8.47Q276.43 8.09 276.45 7.29L276.45 7.29L276.45 7.29Q276.47 6.50 276.47 6.05L276.47 6.05L276.47 6.05Q276.47 5.67 276.44 4.77L276.44 4.77L276.44 4.77Q276.43 4.37 276.09 4.14L276.09 4.14L276.09 4.14Q275.76 3.92 275.31 3.91L275.31 3.91L275.31 3.91Q275.09 3.91 275.09 3.65ZM291.09 10.82L291.09 10.82L291.09 10.82Q291.09 10.53 291.28 10.53L291.28 10.53L291.28 10.53Q291.47 10.53 291.51 10.67L291.51 10.67L291.51 10.67Q291.65 11.00 291.77 11.25L291.77 11.25L291.77 11.25Q291.89 11.49 292.15 11.85L292.15 11.85L292.15 11.85Q292.42 12.21 292.73 12.44L292.73 12.44L292.73 12.44Q293.03 12.67 293.52 12.84L293.52 12.84L293.52 12.84Q294.00 13.01 294.57 13.01L294.57 13.01L294.57 13.01Q295.62 13.01 296.26 12.45L296.26 12.45L296.26 12.45Q296.90 11.90 296.90 11.00L296.90 11.00L296.90 11.00Q296.90 10.35 296.46 9.90L296.46 9.90L296.46 9.90Q296.03 9.46 295.47 9.27L295.47 9.27L295.47 9.27Q294.91 9.09 294.05 8.77L294.05 8.77L294.05 8.77Q293.19 8.46 292.64 8.13L292.64 8.13L292.64 8.13Q291.37 7.38 291.37 6.08L291.37 6.08L291.37 6.08Q291.37 4.83 292.27 4.08L292.27 4.08L292.27 4.08Q293.17 3.33 294.62 3.33L294.62 3.33L294.62 3.33Q295.15 3.33 295.88 3.56L295.88 3.56L295.88 3.56Q296.62 3.79 296.63 3.79L296.63 3.79L296.63 3.79Q296.67 3.79 296.79 3.74L296.79 3.74L296.79 3.74Q296.90 3.68 296.95 3.68L296.95 3.68L296.95 3.68Q297.14 3.68 297.16 3.79L297.16 3.79L297.16 3.79Q297.46 5.49 297.46 5.70L297.46 5.70L297.46 5.70Q297.46 6.09 297.26 6.09L297.26 6.09L297.26 6.09Q297.14 6.09 297.07 5.89L297.07 5.89L297.07 5.89Q296.90 5.49 296.74 5.24L296.74 5.24L296.74 5.24Q296.58 4.98 296.51 4.91L296.51 4.91L296.51 4.91Q296.44 4.84 296.14 4.58L296.14 4.58L296.14 4.58Q295.39 3.91 294.31 3.91L294.31 3.91L294.31 3.91Q293.44 3.91 292.85 4.33L292.85 4.33L292.85 4.33Q292.26 4.75 292.26 5.46L292.26 5.46L292.26 5.46Q292.26 6.09 292.61 6.50L292.61 6.50L292.61 6.50Q292.95 6.90 293.52 7.13L293.52 7.13L293.52 7.13Q294.10 7.35 294.73 7.55L294.73 7.55L294.73 7.55Q295.36 7.74 296.07 8.09L296.07 8.09L296.07 8.09Q296.77 8.44 297.23 8.93L297.23 8.93L297.23 8.93Q297.79 9.53 297.79 10.43L297.79 10.43L297.79 10.43Q297.79 11.90 296.86 12.76L296.86 12.76L296.86 12.76Q295.92 13.62 294.53 13.62L294.53 13.62L294.53 13.62Q293.57 13.62 292.98 13.52L292.98 13.52L292.98 13.52Q292.39 13.41 291.77 13.09L291.77 13.09L291.77 13.09Q291.59 12.98 291.34 12.00L291.34 12.00L291.34 12.00Q291.09 11.02 291.09 10.82Z"></path></g></svg>